<svg width="940" height="542" viewBox="0 0 940 542" xmlns="http://www.w3.org/2000/svg">
  <rect width="940" height="542" rx="12" fill="#0d1117" stroke="#30363d" stroke-width="1"/>

  <text x="24" y="38" fill="#e6edf3" font-size="18" font-weight="700" font-family="system-ui,sans-serif">AI Token Activity</text>
  <text x="170" y="38" fill="#93c5fd" font-size="13" font-family="monospace">@localastronaut</text>
  <text x="916" y="38" fill="#4b5563" font-size="11" font-family="monospace" text-anchor="end">updated 2026-06-14</text>

  <rect x="24" y="68" width="292" height="66" rx="7" fill="#161b22" stroke="#30363d" stroke-width="1"/><text x="37" y="90" fill="#7d8590" font-size="11.5" font-family="system-ui,sans-serif">Total tokens</text><text x="37" y="117" fill="#e6edf3" font-size="21" font-weight="700" font-family="system-ui,sans-serif">5.3B</text>
  <rect x="324" y="68" width="292" height="66" rx="7" fill="#161b22" stroke="#30363d" stroke-width="1"/><text x="337" y="90" fill="#7d8590" font-size="11.5" font-family="system-ui,sans-serif">Leading system</text><text x="337" y="117" fill="#e6edf3" font-size="21" font-weight="700" font-family="system-ui,sans-serif">Codex 99%</text>
  <rect x="624" y="68" width="292" height="66" rx="7" fill="#161b22" stroke="#30363d" stroke-width="1"/><text x="637" y="90" fill="#7d8590" font-size="11.5" font-family="system-ui,sans-serif">Peak day</text><text x="637" y="117" fill="#e6edf3" font-size="21" font-weight="700" font-family="system-ui,sans-serif">310.0M</text>
  <rect x="24" y="142" width="292" height="66" rx="7" fill="#161b22" stroke="#30363d" stroke-width="1"/><text x="37" y="164" fill="#7d8590" font-size="11.5" font-family="system-ui,sans-serif">Longest task</text><text x="37" y="191" fill="#e6edf3" font-size="21" font-weight="700" font-family="system-ui,sans-serif">2h 6m</text>
  <rect x="324" y="142" width="292" height="66" rx="7" fill="#161b22" stroke="#30363d" stroke-width="1"/><text x="337" y="164" fill="#7d8590" font-size="11.5" font-family="system-ui,sans-serif">Current streak</text><text x="337" y="191" fill="#e6edf3" font-size="21" font-weight="700" font-family="system-ui,sans-serif">2d</text>
  <rect x="624" y="142" width="292" height="66" rx="7" fill="#161b22" stroke="#30363d" stroke-width="1"/><text x="637" y="164" fill="#7d8590" font-size="11.5" font-family="system-ui,sans-serif">Longest streak</text><text x="637" y="191" fill="#e6edf3" font-size="21" font-weight="700" font-family="system-ui,sans-serif">20d</text>

  <text x="24" y="233" fill="#7d8590" font-size="12" font-family="system-ui,sans-serif">Source mix</text>
  <circle cx="32" cy="263" r="5" fill="#60a5fa"/><text x="46" y="266" fill="#e6edf3" font-size="13" font-weight="600" font-family="system-ui,sans-serif">Codex</text><text x="46" y="281" fill="#7d8590" font-size="10" font-family="system-ui,sans-serif">lifetime rollup + local det…</text><rect x="210" y="255" width="564" height="13" rx="6.5" fill="#21262d"/><rect x="210" y="255" width="559" height="13" rx="6.5" fill="#60a5fa"/><text x="788" y="266" fill="#e6edf3" font-size="12" font-family="system-ui,sans-serif">5.3B</text><text x="788" y="281" fill="#7d8590" font-size="10" font-family="system-ui,sans-serif">99% · 14 sessions</text>
  <circle cx="32" cy="299" r="5" fill="#f59e0b"/><text x="46" y="302" fill="#e6edf3" font-size="13" font-weight="600" font-family="system-ui,sans-serif">Claude Code</text><text x="46" y="317" fill="#7d8590" font-size="10" font-family="system-ui,sans-serif">live local</text><rect x="210" y="291" width="564" height="13" rx="6.5" fill="#21262d"/><rect x="210" y="291" width="5" height="13" rx="6.5" fill="#f59e0b"/><text x="788" y="302" fill="#e6edf3" font-size="12" font-family="system-ui,sans-serif">45.9M</text><text x="788" y="317" fill="#7d8590" font-size="10" font-family="system-ui,sans-serif">0.9% · 20 sessions</text>

  <text x="24" y="359" fill="#7d8590" font-size="12" font-family="system-ui,sans-serif">Daily activity</text>
  <circle cx="166" cy="355" r="4" fill="#f59e0b"/><text x="175" y="359" fill="#7d8590" font-size="10" font-family="system-ui,sans-serif">Claude Code</text><circle cx="296" cy="355" r="4" fill="#60a5fa"/><text x="305" y="359" fill="#7d8590" font-size="10" font-family="system-ui,sans-serif">Codex</text>
  <g transform="translate(24,382)">
    <text x="0" y="-8" fill="#7d8590" font-size="10" font-family="system-ui,sans-serif">Jun</text>
    <text x="26" y="-8" fill="#7d8590" font-size="10" font-family="system-ui,sans-serif">Jul</text>
    <text x="78" y="-8" fill="#7d8590" font-size="10" font-family="system-ui,sans-serif">Aug</text>
    <text x="143" y="-8" fill="#7d8590" font-size="10" font-family="system-ui,sans-serif">Sep</text>
    <text x="195" y="-8" fill="#7d8590" font-size="10" font-family="system-ui,sans-serif">Oct</text>
    <text x="247" y="-8" fill="#7d8590" font-size="10" font-family="system-ui,sans-serif">Nov</text>
    <text x="312" y="-8" fill="#7d8590" font-size="10" font-family="system-ui,sans-serif">Dec</text>
    <text x="364" y="-8" fill="#7d8590" font-size="10" font-family="system-ui,sans-serif">Jan</text>
    <text x="429" y="-8" fill="#7d8590" font-size="10" font-family="system-ui,sans-serif">Feb</text>
    <text x="481" y="-8" fill="#7d8590" font-size="10" font-family="system-ui,sans-serif">Mar</text>
    <text x="533" y="-8" fill="#7d8590" font-size="10" font-family="system-ui,sans-serif">Apr</text>
    <text x="585" y="-8" fill="#7d8590" font-size="10" font-family="system-ui,sans-serif">May</text>
    <text x="650" y="-8" fill="#7d8590" font-size="10" font-family="system-ui,sans-serif">Jun</text>
    <rect x="0" y="0" width="10" height="10" rx="2" fill="#21262d"><title>2025-06-15: 0 tokens</title></rect>
    <rect x="0" y="13" width="10" height="10" rx="2" fill="#21262d"><title>2025-06-16: 0 tokens</title></rect>
    <rect x="0" y="26" width="10" height="10" rx="2" fill="#21262d"><title>2025-06-17: 0 tokens</title></rect>
    <rect x="0" y="39" width="10" height="10" rx="2" fill="#21262d"><title>2025-06-18: 0 tokens</title></rect>
    <rect x="0" y="52" width="10" height="10" rx="2" fill="#21262d"><title>2025-06-19: 0 tokens</title></rect>
    <rect x="0" y="65" width="10" height="10" rx="2" fill="#21262d"><title>2025-06-20: 0 tokens</title></rect>
    <rect x="0" y="78" width="10" height="10" rx="2" fill="#21262d"><title>2025-06-21: 0 tokens</title></rect>
    <rect x="13" y="0" width="10" height="10" rx="2" fill="#21262d"><title>2025-06-22: 0 tokens</title></rect>
    <rect x="13" y="13" width="10" height="10" rx="2" fill="#21262d"><title>2025-06-23: 0 tokens</title></rect>
    <rect x="13" y="26" width="10" height="10" rx="2" fill="#21262d"><title>2025-06-24: 0 tokens</title></rect>
    <rect x="13" y="39" width="10" height="10" rx="2" fill="#21262d"><title>2025-06-25: 0 tokens</title></rect>
    <rect x="13" y="52" width="10" height="10" rx="2" fill="#21262d"><title>2025-06-26: 0 tokens</title></rect>
    <rect x="13" y="65" width="10" height="10" rx="2" fill="#21262d"><title>2025-06-27: 0 tokens</title></rect>
    <rect x="13" y="78" width="10" height="10" rx="2" fill="#21262d"><title>2025-06-28: 0 tokens</title></rect>
    <rect x="26" y="0" width="10" height="10" rx="2" fill="#21262d"><title>2025-06-29: 0 tokens</title></rect>
    <rect x="26" y="13" width="10" height="10" rx="2" fill="#21262d"><title>2025-06-30: 0 tokens</title></rect>
    <rect x="26" y="26" width="10" height="10" rx="2" fill="#21262d"><title>2025-07-01: 0 tokens</title></rect>
    <rect x="26" y="39" width="10" height="10" rx="2" fill="#21262d"><title>2025-07-02: 0 tokens</title></rect>
    <rect x="26" y="52" width="10" height="10" rx="2" fill="#21262d"><title>2025-07-03: 0 tokens</title></rect>
    <rect x="26" y="65" width="10" height="10" rx="2" fill="#21262d"><title>2025-07-04: 0 tokens</title></rect>
    <rect x="26" y="78" width="10" height="10" rx="2" fill="#21262d"><title>2025-07-05: 0 tokens</title></rect>
    <rect x="39" y="0" width="10" height="10" rx="2" fill="#21262d"><title>2025-07-06: 0 tokens</title></rect>
    <rect x="39" y="13" width="10" height="10" rx="2" fill="#21262d"><title>2025-07-07: 0 tokens</title></rect>
    <rect x="39" y="26" width="10" height="10" rx="2" fill="#21262d"><title>2025-07-08: 0 tokens</title></rect>
    <rect x="39" y="39" width="10" height="10" rx="2" fill="#21262d"><title>2025-07-09: 0 tokens</title></rect>
    <rect x="39" y="52" width="10" height="10" rx="2" fill="#21262d"><title>2025-07-10: 0 tokens</title></rect>
    <rect x="39" y="65" width="10" height="10" rx="2" fill="#21262d"><title>2025-07-11: 0 tokens</title></rect>
    <rect x="39" y="78" width="10" height="10" rx="2" fill="#21262d"><title>2025-07-12: 0 tokens</title></rect>
    <rect x="52" y="0" width="10" height="10" rx="2" fill="#21262d"><title>2025-07-13: 0 tokens</title></rect>
    <rect x="52" y="13" width="10" height="10" rx="2" fill="#21262d"><title>2025-07-14: 0 tokens</title></rect>
    <rect x="52" y="26" width="10" height="10" rx="2" fill="#21262d"><title>2025-07-15: 0 tokens</title></rect>
    <rect x="52" y="39" width="10" height="10" rx="2" fill="#21262d"><title>2025-07-16: 0 tokens</title></rect>
    <rect x="52" y="52" width="10" height="10" rx="2" fill="#21262d"><title>2025-07-17: 0 tokens</title></rect>
    <rect x="52" y="65" width="10" height="10" rx="2" fill="#21262d"><title>2025-07-18: 0 tokens</title></rect>
    <rect x="52" y="78" width="10" height="10" rx="2" fill="#21262d"><title>2025-07-19: 0 tokens</title></rect>
    <rect x="65" y="0" width="10" height="10" rx="2" fill="#21262d"><title>2025-07-20: 0 tokens</title></rect>
    <rect x="65" y="13" width="10" height="10" rx="2" fill="#21262d"><title>2025-07-21: 0 tokens</title></rect>
    <rect x="65" y="26" width="10" height="10" rx="2" fill="#21262d"><title>2025-07-22: 0 tokens</title></rect>
    <rect x="65" y="39" width="10" height="10" rx="2" fill="#21262d"><title>2025-07-23: 0 tokens</title></rect>
    <rect x="65" y="52" width="10" height="10" rx="2" fill="#21262d"><title>2025-07-24: 0 tokens</title></rect>
    <rect x="65" y="65" width="10" height="10" rx="2" fill="#21262d"><title>2025-07-25: 0 tokens</title></rect>
    <rect x="65" y="78" width="10" height="10" rx="2" fill="#21262d"><title>2025-07-26: 0 tokens</title></rect>
    <rect x="78" y="0" width="10" height="10" rx="2" fill="#21262d"><title>2025-07-27: 0 tokens</title></rect>
    <rect x="78" y="13" width="10" height="10" rx="2" fill="#21262d"><title>2025-07-28: 0 tokens</title></rect>
    <rect x="78" y="26" width="10" height="10" rx="2" fill="#21262d"><title>2025-07-29: 0 tokens</title></rect>
    <rect x="78" y="39" width="10" height="10" rx="2" fill="#21262d"><title>2025-07-30: 0 tokens</title></rect>
    <rect x="78" y="52" width="10" height="10" rx="2" fill="#21262d"><title>2025-07-31: 0 tokens</title></rect>
    <rect x="78" y="65" width="10" height="10" rx="2" fill="#21262d"><title>2025-08-01: 0 tokens</title></rect>
    <rect x="78" y="78" width="10" height="10" rx="2" fill="#21262d"><title>2025-08-02: 0 tokens</title></rect>
    <rect x="91" y="0" width="10" height="10" rx="2" fill="#21262d"><title>2025-08-03: 0 tokens</title></rect>
    <rect x="91" y="13" width="10" height="10" rx="2" fill="#21262d"><title>2025-08-04: 0 tokens</title></rect>
    <rect x="91" y="26" width="10" height="10" rx="2" fill="#21262d"><title>2025-08-05: 0 tokens</title></rect>
    <rect x="91" y="39" width="10" height="10" rx="2" fill="#21262d"><title>2025-08-06: 0 tokens</title></rect>
    <rect x="91" y="52" width="10" height="10" rx="2" fill="#21262d"><title>2025-08-07: 0 tokens</title></rect>
    <rect x="91" y="65" width="10" height="10" rx="2" fill="#21262d"><title>2025-08-08: 0 tokens</title></rect>
    <rect x="91" y="78" width="10" height="10" rx="2" fill="#21262d"><title>2025-08-09: 0 tokens</title></rect>
    <rect x="104" y="0" width="10" height="10" rx="2" fill="#21262d"><title>2025-08-10: 0 tokens</title></rect>
    <rect x="104" y="13" width="10" height="10" rx="2" fill="#21262d"><title>2025-08-11: 0 tokens</title></rect>
    <rect x="104" y="26" width="10" height="10" rx="2" fill="#21262d"><title>2025-08-12: 0 tokens</title></rect>
    <rect x="104" y="39" width="10" height="10" rx="2" fill="#21262d"><title>2025-08-13: 0 tokens</title></rect>
    <rect x="104" y="52" width="10" height="10" rx="2" fill="#21262d"><title>2025-08-14: 0 tokens</title></rect>
    <rect x="104" y="65" width="10" height="10" rx="2" fill="#21262d"><title>2025-08-15: 0 tokens</title></rect>
    <rect x="104" y="78" width="10" height="10" rx="2" fill="#21262d"><title>2025-08-16: 0 tokens</title></rect>
    <rect x="117" y="0" width="10" height="10" rx="2" fill="#21262d"><title>2025-08-17: 0 tokens</title></rect>
    <rect x="117" y="13" width="10" height="10" rx="2" fill="#21262d"><title>2025-08-18: 0 tokens</title></rect>
    <rect x="117" y="26" width="10" height="10" rx="2" fill="#21262d"><title>2025-08-19: 0 tokens</title></rect>
    <rect x="117" y="39" width="10" height="10" rx="2" fill="#21262d"><title>2025-08-20: 0 tokens</title></rect>
    <rect x="117" y="52" width="10" height="10" rx="2" fill="#21262d"><title>2025-08-21: 0 tokens</title></rect>
    <rect x="117" y="65" width="10" height="10" rx="2" fill="#21262d"><title>2025-08-22: 0 tokens</title></rect>
    <rect x="117" y="78" width="10" height="10" rx="2" fill="#21262d"><title>2025-08-23: 0 tokens</title></rect>
    <rect x="130" y="0" width="10" height="10" rx="2" fill="#21262d"><title>2025-08-24: 0 tokens</title></rect>
    <rect x="130" y="13" width="10" height="10" rx="2" fill="#21262d"><title>2025-08-25: 0 tokens</title></rect>
    <rect x="130" y="26" width="10" height="10" rx="2" fill="#21262d"><title>2025-08-26: 0 tokens</title></rect>
    <rect x="130" y="39" width="10" height="10" rx="2" fill="#21262d"><title>2025-08-27: 0 tokens</title></rect>
    <rect x="130" y="52" width="10" height="10" rx="2" fill="#21262d"><title>2025-08-28: 0 tokens</title></rect>
    <rect x="130" y="65" width="10" height="10" rx="2" fill="#21262d"><title>2025-08-29: 0 tokens</title></rect>
    <rect x="130" y="78" width="10" height="10" rx="2" fill="#21262d"><title>2025-08-30: 0 tokens</title></rect>
    <rect x="143" y="0" width="10" height="10" rx="2" fill="#21262d"><title>2025-08-31: 0 tokens</title></rect>
    <rect x="143" y="13" width="10" height="10" rx="2" fill="#21262d"><title>2025-09-01: 0 tokens</title></rect>
    <rect x="143" y="26" width="10" height="10" rx="2" fill="#21262d"><title>2025-09-02: 0 tokens</title></rect>
    <rect x="143" y="39" width="10" height="10" rx="2" fill="#21262d"><title>2025-09-03: 0 tokens</title></rect>
    <rect x="143" y="52" width="10" height="10" rx="2" fill="#21262d"><title>2025-09-04: 0 tokens</title></rect>
    <rect x="143" y="65" width="10" height="10" rx="2" fill="#21262d"><title>2025-09-05: 0 tokens</title></rect>
    <rect x="143" y="78" width="10" height="10" rx="2" fill="#21262d"><title>2025-09-06: 0 tokens</title></rect>
    <rect x="156" y="0" width="10" height="10" rx="2" fill="#21262d"><title>2025-09-07: 0 tokens</title></rect>
    <rect x="156" y="13" width="10" height="10" rx="2" fill="#21262d"><title>2025-09-08: 0 tokens</title></rect>
    <rect x="156" y="26" width="10" height="10" rx="2" fill="#21262d"><title>2025-09-09: 0 tokens</title></rect>
    <rect x="156" y="39" width="10" height="10" rx="2" fill="#21262d"><title>2025-09-10: 0 tokens</title></rect>
    <rect x="156" y="52" width="10" height="10" rx="2" fill="#21262d"><title>2025-09-11: 0 tokens</title></rect>
    <rect x="156" y="65" width="10" height="10" rx="2" fill="#21262d"><title>2025-09-12: 0 tokens</title></rect>
    <rect x="156" y="78" width="10" height="10" rx="2" fill="#21262d"><title>2025-09-13: 0 tokens</title></rect>
    <rect x="169" y="0" width="10" height="10" rx="2" fill="#21262d"><title>2025-09-14: 0 tokens</title></rect>
    <rect x="169" y="13" width="10" height="10" rx="2" fill="#21262d"><title>2025-09-15: 0 tokens</title></rect>
    <rect x="169" y="26" width="10" height="10" rx="2" fill="#21262d"><title>2025-09-16: 0 tokens</title></rect>
    <rect x="169" y="39" width="10" height="10" rx="2" fill="#21262d"><title>2025-09-17: 0 tokens</title></rect>
    <rect x="169" y="52" width="10" height="10" rx="2" fill="#21262d"><title>2025-09-18: 0 tokens</title></rect>
    <rect x="169" y="65" width="10" height="10" rx="2" fill="#21262d"><title>2025-09-19: 0 tokens</title></rect>
    <rect x="169" y="78" width="10" height="10" rx="2" fill="#21262d"><title>2025-09-20: 0 tokens</title></rect>
    <rect x="182" y="0" width="10" height="10" rx="2" fill="#21262d"><title>2025-09-21: 0 tokens</title></rect>
    <rect x="182" y="13" width="10" height="10" rx="2" fill="#21262d"><title>2025-09-22: 0 tokens</title></rect>
    <rect x="182" y="26" width="10" height="10" rx="2" fill="#21262d"><title>2025-09-23: 0 tokens</title></rect>
    <rect x="182" y="39" width="10" height="10" rx="2" fill="#21262d"><title>2025-09-24: 0 tokens</title></rect>
    <rect x="182" y="52" width="10" height="10" rx="2" fill="#21262d"><title>2025-09-25: 0 tokens</title></rect>
    <rect x="182" y="65" width="10" height="10" rx="2" fill="#21262d"><title>2025-09-26: 0 tokens</title></rect>
    <rect x="182" y="78" width="10" height="10" rx="2" fill="#21262d"><title>2025-09-27: 0 tokens</title></rect>
    <rect x="195" y="0" width="10" height="10" rx="2" fill="#21262d"><title>2025-09-28: 0 tokens</title></rect>
    <rect x="195" y="13" width="10" height="10" rx="2" fill="#21262d"><title>2025-09-29: 0 tokens</title></rect>
    <rect x="195" y="26" width="10" height="10" rx="2" fill="#21262d"><title>2025-09-30: 0 tokens</title></rect>
    <rect x="195" y="39" width="10" height="10" rx="2" fill="#21262d"><title>2025-10-01: 0 tokens</title></rect>
    <rect x="195" y="52" width="10" height="10" rx="2" fill="#21262d"><title>2025-10-02: 0 tokens</title></rect>
    <rect x="195" y="65" width="10" height="10" rx="2" fill="#21262d"><title>2025-10-03: 0 tokens</title></rect>
    <rect x="195" y="78" width="10" height="10" rx="2" fill="#21262d"><title>2025-10-04: 0 tokens</title></rect>
    <rect x="208" y="0" width="10" height="10" rx="2" fill="#21262d"><title>2025-10-05: 0 tokens</title></rect>
    <rect x="208" y="13" width="10" height="10" rx="2" fill="#21262d"><title>2025-10-06: 0 tokens</title></rect>
    <rect x="208" y="26" width="10" height="10" rx="2" fill="#21262d"><title>2025-10-07: 0 tokens</title></rect>
    <rect x="208" y="39" width="10" height="10" rx="2" fill="#21262d"><title>2025-10-08: 0 tokens</title></rect>
    <rect x="208" y="52" width="10" height="10" rx="2" fill="#21262d"><title>2025-10-09: 0 tokens</title></rect>
    <rect x="208" y="65" width="10" height="10" rx="2" fill="#21262d"><title>2025-10-10: 0 tokens</title></rect>
    <rect x="208" y="78" width="10" height="10" rx="2" fill="#21262d"><title>2025-10-11: 0 tokens</title></rect>
    <rect x="221" y="0" width="10" height="10" rx="2" fill="#21262d"><title>2025-10-12: 0 tokens</title></rect>
    <rect x="221" y="13" width="10" height="10" rx="2" fill="#21262d"><title>2025-10-13: 0 tokens</title></rect>
    <rect x="221" y="26" width="10" height="10" rx="2" fill="#21262d"><title>2025-10-14: 0 tokens</title></rect>
    <rect x="221" y="39" width="10" height="10" rx="2" fill="#21262d"><title>2025-10-15: 0 tokens</title></rect>
    <rect x="221" y="52" width="10" height="10" rx="2" fill="#21262d"><title>2025-10-16: 0 tokens</title></rect>
    <rect x="221" y="65" width="10" height="10" rx="2" fill="#21262d"><title>2025-10-17: 0 tokens</title></rect>
    <rect x="221" y="78" width="10" height="10" rx="2" fill="#21262d"><title>2025-10-18: 0 tokens</title></rect>
    <rect x="234" y="0" width="10" height="10" rx="2" fill="#21262d"><title>2025-10-19: 0 tokens</title></rect>
    <rect x="234" y="13" width="10" height="10" rx="2" fill="#21262d"><title>2025-10-20: 0 tokens</title></rect>
    <rect x="234" y="26" width="10" height="10" rx="2" fill="#21262d"><title>2025-10-21: 0 tokens</title></rect>
    <rect x="234" y="39" width="10" height="10" rx="2" fill="#21262d"><title>2025-10-22: 0 tokens</title></rect>
    <rect x="234" y="52" width="10" height="10" rx="2" fill="#21262d"><title>2025-10-23: 0 tokens</title></rect>
    <rect x="234" y="65" width="10" height="10" rx="2" fill="#21262d"><title>2025-10-24: 0 tokens</title></rect>
    <rect x="234" y="78" width="10" height="10" rx="2" fill="#21262d"><title>2025-10-25: 0 tokens</title></rect>
    <rect x="247" y="0" width="10" height="10" rx="2" fill="#21262d"><title>2025-10-26: 0 tokens</title></rect>
    <rect x="247" y="13" width="10" height="10" rx="2" fill="#21262d"><title>2025-10-27: 0 tokens</title></rect>
    <rect x="247" y="26" width="10" height="10" rx="2" fill="#21262d"><title>2025-10-28: 0 tokens</title></rect>
    <rect x="247" y="39" width="10" height="10" rx="2" fill="#21262d"><title>2025-10-29: 0 tokens</title></rect>
    <rect x="247" y="52" width="10" height="10" rx="2" fill="#21262d"><title>2025-10-30: 0 tokens</title></rect>
    <rect x="247" y="65" width="10" height="10" rx="2" fill="#21262d"><title>2025-10-31: 0 tokens</title></rect>
    <rect x="247" y="78" width="10" height="10" rx="2" fill="#21262d"><title>2025-11-01: 0 tokens</title></rect>
    <rect x="260" y="0" width="10" height="10" rx="2" fill="#21262d"><title>2025-11-02: 0 tokens</title></rect>
    <rect x="260" y="13" width="10" height="10" rx="2" fill="#21262d"><title>2025-11-03: 0 tokens</title></rect>
    <rect x="260" y="26" width="10" height="10" rx="2" fill="#21262d"><title>2025-11-04: 0 tokens</title></rect>
    <rect x="260" y="39" width="10" height="10" rx="2" fill="#21262d"><title>2025-11-05: 0 tokens</title></rect>
    <rect x="260" y="52" width="10" height="10" rx="2" fill="#21262d"><title>2025-11-06: 0 tokens</title></rect>
    <rect x="260" y="65" width="10" height="10" rx="2" fill="#21262d"><title>2025-11-07: 0 tokens</title></rect>
    <rect x="260" y="78" width="10" height="10" rx="2" fill="#21262d"><title>2025-11-08: 0 tokens</title></rect>
    <rect x="273" y="0" width="10" height="10" rx="2" fill="#21262d"><title>2025-11-09: 0 tokens</title></rect>
    <rect x="273" y="13" width="10" height="10" rx="2" fill="#21262d"><title>2025-11-10: 0 tokens</title></rect>
    <rect x="273" y="26" width="10" height="10" rx="2" fill="#21262d"><title>2025-11-11: 0 tokens</title></rect>
    <rect x="273" y="39" width="10" height="10" rx="2" fill="#21262d"><title>2025-11-12: 0 tokens</title></rect>
    <rect x="273" y="52" width="10" height="10" rx="2" fill="#21262d"><title>2025-11-13: 0 tokens</title></rect>
    <rect x="273" y="65" width="10" height="10" rx="2" fill="#21262d"><title>2025-11-14: 0 tokens</title></rect>
    <rect x="273" y="78" width="10" height="10" rx="2" fill="#21262d"><title>2025-11-15: 0 tokens</title></rect>
    <rect x="286" y="0" width="10" height="10" rx="2" fill="#21262d"><title>2025-11-16: 0 tokens</title></rect>
    <rect x="286" y="13" width="10" height="10" rx="2" fill="#21262d"><title>2025-11-17: 0 tokens</title></rect>
    <rect x="286" y="26" width="10" height="10" rx="2" fill="#21262d"><title>2025-11-18: 0 tokens</title></rect>
    <rect x="286" y="39" width="10" height="10" rx="2" fill="#21262d"><title>2025-11-19: 0 tokens</title></rect>
    <rect x="286" y="52" width="10" height="10" rx="2" fill="#21262d"><title>2025-11-20: 0 tokens</title></rect>
    <rect x="286" y="65" width="10" height="10" rx="2" fill="#21262d"><title>2025-11-21: 0 tokens</title></rect>
    <rect x="286" y="78" width="10" height="10" rx="2" fill="#21262d"><title>2025-11-22: 0 tokens</title></rect>
    <rect x="299" y="0" width="10" height="10" rx="2" fill="#21262d"><title>2025-11-23: 0 tokens</title></rect>
    <rect x="299" y="13" width="10" height="10" rx="2" fill="#21262d"><title>2025-11-24: 0 tokens</title></rect>
    <rect x="299" y="26" width="10" height="10" rx="2" fill="#21262d"><title>2025-11-25: 0 tokens</title></rect>
    <rect x="299" y="39" width="10" height="10" rx="2" fill="#21262d"><title>2025-11-26: 0 tokens</title></rect>
    <rect x="299" y="52" width="10" height="10" rx="2" fill="#21262d"><title>2025-11-27: 0 tokens</title></rect>
    <rect x="299" y="65" width="10" height="10" rx="2" fill="#21262d"><title>2025-11-28: 0 tokens</title></rect>
    <rect x="299" y="78" width="10" height="10" rx="2" fill="#21262d"><title>2025-11-29: 0 tokens</title></rect>
    <rect x="312" y="0" width="10" height="10" rx="2" fill="#21262d"><title>2025-11-30: 0 tokens</title></rect>
    <rect x="312" y="13" width="10" height="10" rx="2" fill="#21262d"><title>2025-12-01: 0 tokens</title></rect>
    <rect x="312" y="26" width="10" height="10" rx="2" fill="#21262d"><title>2025-12-02: 0 tokens</title></rect>
    <rect x="312" y="39" width="10" height="10" rx="2" fill="#21262d"><title>2025-12-03: 0 tokens</title></rect>
    <rect x="312" y="52" width="10" height="10" rx="2" fill="#21262d"><title>2025-12-04: 0 tokens</title></rect>
    <rect x="312" y="65" width="10" height="10" rx="2" fill="#21262d"><title>2025-12-05: 0 tokens</title></rect>
    <rect x="312" y="78" width="10" height="10" rx="2" fill="#21262d"><title>2025-12-06: 0 tokens</title></rect>
    <rect x="325" y="0" width="10" height="10" rx="2" fill="#21262d"><title>2025-12-07: 0 tokens</title></rect>
    <rect x="325" y="13" width="10" height="10" rx="2" fill="#21262d"><title>2025-12-08: 0 tokens</title></rect>
    <rect x="325" y="26" width="10" height="10" rx="2" fill="#21262d"><title>2025-12-09: 0 tokens</title></rect>
    <rect x="325" y="39" width="10" height="10" rx="2" fill="#21262d"><title>2025-12-10: 0 tokens</title></rect>
    <rect x="325" y="52" width="10" height="10" rx="2" fill="#21262d"><title>2025-12-11: 0 tokens</title></rect>
    <rect x="325" y="65" width="10" height="10" rx="2" fill="#21262d"><title>2025-12-12: 0 tokens</title></rect>
    <rect x="325" y="78" width="10" height="10" rx="2" fill="#21262d"><title>2025-12-13: 0 tokens</title></rect>
    <rect x="338" y="0" width="10" height="10" rx="2" fill="#21262d"><title>2025-12-14: 0 tokens</title></rect>
    <rect x="338" y="13" width="10" height="10" rx="2" fill="#21262d"><title>2025-12-15: 0 tokens</title></rect>
    <rect x="338" y="26" width="10" height="10" rx="2" fill="#21262d"><title>2025-12-16: 0 tokens</title></rect>
    <rect x="338" y="39" width="10" height="10" rx="2" fill="#21262d"><title>2025-12-17: 0 tokens</title></rect>
    <rect x="338" y="52" width="10" height="10" rx="2" fill="#21262d"><title>2025-12-18: 0 tokens</title></rect>
    <rect x="338" y="65" width="10" height="10" rx="2" fill="#21262d"><title>2025-12-19: 0 tokens</title></rect>
    <rect x="338" y="78" width="10" height="10" rx="2" fill="#21262d"><title>2025-12-20: 0 tokens</title></rect>
    <rect x="351" y="0" width="10" height="10" rx="2" fill="#21262d"><title>2025-12-21: 0 tokens</title></rect>
    <rect x="351" y="13" width="10" height="10" rx="2" fill="#21262d"><title>2025-12-22: 0 tokens</title></rect>
    <rect x="351" y="26" width="10" height="10" rx="2" fill="#21262d"><title>2025-12-23: 0 tokens</title></rect>
    <rect x="351" y="39" width="10" height="10" rx="2" fill="#21262d"><title>2025-12-24: 0 tokens</title></rect>
    <rect x="351" y="52" width="10" height="10" rx="2" fill="#21262d"><title>2025-12-25: 0 tokens</title></rect>
    <rect x="351" y="65" width="10" height="10" rx="2" fill="#21262d"><title>2025-12-26: 0 tokens</title></rect>
    <rect x="351" y="78" width="10" height="10" rx="2" fill="#21262d"><title>2025-12-27: 0 tokens</title></rect>
    <rect x="364" y="0" width="10" height="10" rx="2" fill="#21262d"><title>2025-12-28: 0 tokens</title></rect>
    <rect x="364" y="13" width="10" height="10" rx="2" fill="#21262d"><title>2025-12-29: 0 tokens</title></rect>
    <rect x="364" y="26" width="10" height="10" rx="2" fill="#21262d"><title>2025-12-30: 0 tokens</title></rect>
    <rect x="364" y="39" width="10" height="10" rx="2" fill="#21262d"><title>2025-12-31: 0 tokens</title></rect>
    <rect x="364" y="52" width="10" height="10" rx="2" fill="#21262d"><title>2026-01-01: 0 tokens</title></rect>
    <rect x="364" y="65" width="10" height="10" rx="2" fill="#21262d"><title>2026-01-02: 0 tokens</title></rect>
    <rect x="364" y="78" width="10" height="10" rx="2" fill="#21262d"><title>2026-01-03: 0 tokens</title></rect>
    <rect x="377" y="0" width="10" height="10" rx="2" fill="#21262d"><title>2026-01-04: 0 tokens</title></rect>
    <rect x="377" y="13" width="10" height="10" rx="2" fill="#21262d"><title>2026-01-05: 0 tokens</title></rect>
    <rect x="377" y="26" width="10" height="10" rx="2" fill="#21262d"><title>2026-01-06: 0 tokens</title></rect>
    <rect x="377" y="39" width="10" height="10" rx="2" fill="#21262d"><title>2026-01-07: 0 tokens</title></rect>
    <rect x="377" y="52" width="10" height="10" rx="2" fill="#21262d"><title>2026-01-08: 0 tokens</title></rect>
    <rect x="377" y="65" width="10" height="10" rx="2" fill="#21262d"><title>2026-01-09: 0 tokens</title></rect>
    <rect x="377" y="78" width="10" height="10" rx="2" fill="#21262d"><title>2026-01-10: 0 tokens</title></rect>
    <rect x="390" y="0" width="10" height="10" rx="2" fill="#21262d"><title>2026-01-11: 0 tokens</title></rect>
    <rect x="390" y="13" width="10" height="10" rx="2" fill="#21262d"><title>2026-01-12: 0 tokens</title></rect>
    <rect x="390" y="26" width="10" height="10" rx="2" fill="#21262d"><title>2026-01-13: 0 tokens</title></rect>
    <rect x="390" y="39" width="10" height="10" rx="2" fill="#21262d"><title>2026-01-14: 0 tokens</title></rect>
    <rect x="390" y="52" width="10" height="10" rx="2" fill="#21262d"><title>2026-01-15: 0 tokens</title></rect>
    <rect x="390" y="65" width="10" height="10" rx="2" fill="#21262d"><title>2026-01-16: 0 tokens</title></rect>
    <rect x="390" y="78" width="10" height="10" rx="2" fill="#21262d"><title>2026-01-17: 0 tokens</title></rect>
    <rect x="403" y="0" width="10" height="10" rx="2" fill="#21262d"><title>2026-01-18: 0 tokens</title></rect>
    <rect x="403" y="13" width="10" height="10" rx="2" fill="#21262d"><title>2026-01-19: 0 tokens</title></rect>
    <rect x="403" y="26" width="10" height="10" rx="2" fill="#21262d"><title>2026-01-20: 0 tokens</title></rect>
    <rect x="403" y="39" width="10" height="10" rx="2" fill="#21262d"><title>2026-01-21: 0 tokens</title></rect>
    <rect x="403" y="52" width="10" height="10" rx="2" fill="#21262d"><title>2026-01-22: 0 tokens</title></rect>
    <rect x="403" y="65" width="10" height="10" rx="2" fill="#21262d"><title>2026-01-23: 0 tokens</title></rect>
    <rect x="403" y="78" width="10" height="10" rx="2" fill="#21262d"><title>2026-01-24: 0 tokens</title></rect>
    <rect x="416" y="0" width="10" height="10" rx="2" fill="#21262d"><title>2026-01-25: 0 tokens</title></rect>
    <rect x="416" y="13" width="10" height="10" rx="2" fill="#21262d"><title>2026-01-26: 0 tokens</title></rect>
    <rect x="416" y="26" width="10" height="10" rx="2" fill="#21262d"><title>2026-01-27: 0 tokens</title></rect>
    <rect x="416" y="39" width="10" height="10" rx="2" fill="#21262d"><title>2026-01-28: 0 tokens</title></rect>
    <rect x="416" y="52" width="10" height="10" rx="2" fill="#21262d"><title>2026-01-29: 0 tokens</title></rect>
    <rect x="416" y="65" width="10" height="10" rx="2" fill="#21262d"><title>2026-01-30: 0 tokens</title></rect>
    <rect x="416" y="78" width="10" height="10" rx="2" fill="#21262d"><title>2026-01-31: 0 tokens</title></rect>
    <rect x="429" y="0" width="10" height="10" rx="2" fill="#21262d"><title>2026-02-01: 0 tokens</title></rect>
    <rect x="429" y="13" width="10" height="10" rx="2" fill="#21262d"><title>2026-02-02: 0 tokens</title></rect>
    <rect x="429" y="26" width="10" height="10" rx="2" fill="#21262d"><title>2026-02-03: 0 tokens</title></rect>
    <rect x="429" y="39" width="10" height="10" rx="2" fill="#21262d"><title>2026-02-04: 0 tokens</title></rect>
    <rect x="429" y="52" width="10" height="10" rx="2" fill="#21262d"><title>2026-02-05: 0 tokens</title></rect>
    <rect x="429" y="65" width="10" height="10" rx="2" fill="#21262d"><title>2026-02-06: 0 tokens</title></rect>
    <rect x="429" y="78" width="10" height="10" rx="2" fill="#21262d"><title>2026-02-07: 0 tokens</title></rect>
    <rect x="442" y="0" width="10" height="10" rx="2" fill="#21262d"><title>2026-02-08: 0 tokens</title></rect>
    <rect x="442" y="13" width="10" height="10" rx="2" fill="#21262d"><title>2026-02-09: 0 tokens</title></rect>
    <rect x="442" y="26" width="10" height="10" rx="2" fill="#21262d"><title>2026-02-10: 0 tokens</title></rect>
    <rect x="442" y="39" width="10" height="10" rx="2" fill="#21262d"><title>2026-02-11: 0 tokens</title></rect>
    <rect x="442" y="52" width="10" height="10" rx="2" fill="#21262d"><title>2026-02-12: 0 tokens</title></rect>
    <rect x="442" y="65" width="10" height="10" rx="2" fill="#21262d"><title>2026-02-13: 0 tokens</title></rect>
    <rect x="442" y="78" width="10" height="10" rx="2" fill="#21262d"><title>2026-02-14: 0 tokens</title></rect>
    <rect x="455" y="0" width="10" height="10" rx="2" fill="#21262d"><title>2026-02-15: 0 tokens</title></rect>
    <rect x="455" y="13" width="10" height="10" rx="2" fill="#21262d"><title>2026-02-16: 0 tokens</title></rect>
    <rect x="455" y="26" width="10" height="10" rx="2" fill="#21262d"><title>2026-02-17: 0 tokens</title></rect>
    <rect x="455" y="39" width="10" height="10" rx="2" fill="#21262d"><title>2026-02-18: 0 tokens</title></rect>
    <rect x="455" y="52" width="10" height="10" rx="2" fill="#21262d"><title>2026-02-19: 0 tokens</title></rect>
    <rect x="455" y="65" width="10" height="10" rx="2" fill="#21262d"><title>2026-02-20: 0 tokens</title></rect>
    <rect x="455" y="78" width="10" height="10" rx="2" fill="#21262d"><title>2026-02-21: 0 tokens</title></rect>
    <rect x="468" y="0" width="10" height="10" rx="2" fill="#21262d"><title>2026-02-22: 0 tokens</title></rect>
    <rect x="468" y="13" width="10" height="10" rx="2" fill="#21262d"><title>2026-02-23: 0 tokens</title></rect>
    <rect x="468" y="26" width="10" height="10" rx="2" fill="#21262d"><title>2026-02-24: 0 tokens</title></rect>
    <rect x="468" y="39" width="10" height="10" rx="2" fill="#21262d"><title>2026-02-25: 0 tokens</title></rect>
    <rect x="468" y="52" width="10" height="10" rx="2" fill="#21262d"><title>2026-02-26: 0 tokens</title></rect>
    <rect x="468" y="65" width="10" height="10" rx="2" fill="#21262d"><title>2026-02-27: 0 tokens</title></rect>
    <rect x="468" y="78" width="10" height="10" rx="2" fill="#21262d"><title>2026-02-28: 0 tokens</title></rect>
    <rect x="481" y="0" width="10" height="10" rx="2" fill="#21262d"><title>2026-03-01: 0 tokens</title></rect>
    <rect x="481" y="13" width="10" height="10" rx="2" fill="#21262d"><title>2026-03-02: 0 tokens</title></rect>
    <rect x="481" y="26" width="10" height="10" rx="2" fill="#21262d"><title>2026-03-03: 0 tokens</title></rect>
    <rect x="481" y="39" width="10" height="10" rx="2" fill="#21262d"><title>2026-03-04: 0 tokens</title></rect>
    <rect x="481" y="52" width="10" height="10" rx="2" fill="#21262d"><title>2026-03-05: 0 tokens</title></rect>
    <rect x="481" y="65" width="10" height="10" rx="2" fill="#21262d"><title>2026-03-06: 0 tokens</title></rect>
    <rect x="481" y="78" width="10" height="10" rx="2" fill="#21262d"><title>2026-03-07: 0 tokens</title></rect>
    <rect x="494" y="0" width="10" height="10" rx="2" fill="#21262d"><title>2026-03-08: 0 tokens</title></rect>
    <rect x="494" y="13" width="10" height="10" rx="2" fill="#21262d"><title>2026-03-09: 0 tokens</title></rect>
    <rect x="494" y="26" width="10" height="10" rx="2" fill="#21262d"><title>2026-03-10: 0 tokens</title></rect>
    <rect x="494" y="39" width="10" height="10" rx="2" fill="#21262d"><title>2026-03-11: 0 tokens</title></rect>
    <rect x="494" y="52" width="10" height="10" rx="2" fill="#21262d"><title>2026-03-12: 0 tokens</title></rect>
    <rect x="494" y="65" width="10" height="10" rx="2" fill="#21262d"><title>2026-03-13: 0 tokens</title></rect>
    <rect x="494" y="78" width="10" height="10" rx="2" fill="#21262d"><title>2026-03-14: 0 tokens</title></rect>
    <rect x="507" y="0" width="10" height="10" rx="2" fill="#21262d"><title>2026-03-15: 0 tokens</title></rect>
    <rect x="507" y="13" width="10" height="10" rx="2" fill="#21262d"><title>2026-03-16: 0 tokens</title></rect>
    <rect x="507" y="26" width="10" height="10" rx="2" fill="#21262d"><title>2026-03-17: 0 tokens</title></rect>
    <rect x="507" y="39" width="10" height="10" rx="2" fill="#21262d"><title>2026-03-18: 0 tokens</title></rect>
    <rect x="507" y="52" width="10" height="10" rx="2" fill="#21262d"><title>2026-03-19: 0 tokens</title></rect>
    <rect x="507" y="65" width="10" height="10" rx="2" fill="#21262d"><title>2026-03-20: 0 tokens</title></rect>
    <rect x="507" y="78" width="10" height="10" rx="2" fill="#21262d"><title>2026-03-21: 0 tokens</title></rect>
    <rect x="520" y="0" width="10" height="10" rx="2" fill="#21262d"><title>2026-03-22: 0 tokens</title></rect>
    <rect x="520" y="13" width="10" height="10" rx="2" fill="#21262d"><title>2026-03-23: 0 tokens</title></rect>
    <rect x="520" y="26" width="10" height="10" rx="2" fill="#21262d"><title>2026-03-24: 0 tokens</title></rect>
    <rect x="520" y="39" width="10" height="10" rx="2" fill="#21262d"><title>2026-03-25: 0 tokens</title></rect>
    <rect x="520" y="52" width="10" height="10" rx="2" fill="#21262d"><title>2026-03-26: 0 tokens</title></rect>
    <rect x="520" y="65" width="10" height="10" rx="2" fill="#21262d"><title>2026-03-27: 0 tokens</title></rect>
    <rect x="520" y="78" width="10" height="10" rx="2" fill="#21262d"><title>2026-03-28: 0 tokens</title></rect>
    <rect x="533" y="0" width="10" height="10" rx="2" fill="#21262d"><title>2026-03-29: 0 tokens</title></rect>
    <rect x="533" y="13" width="10" height="10" rx="2" fill="#21262d"><title>2026-03-30: 0 tokens</title></rect>
    <rect x="533" y="26" width="10" height="10" rx="2" fill="#21262d"><title>2026-03-31: 0 tokens</title></rect>
    <rect x="533" y="39" width="10" height="10" rx="2" fill="#21262d"><title>2026-04-01: 0 tokens</title></rect>
    <rect x="533" y="52" width="10" height="10" rx="2" fill="#21262d"><title>2026-04-02: 0 tokens</title></rect>
    <rect x="533" y="65" width="10" height="10" rx="2" fill="#21262d"><title>2026-04-03: 0 tokens</title></rect>
    <rect x="533" y="78" width="10" height="10" rx="2" fill="#21262d"><title>2026-04-04: 0 tokens</title></rect>
    <rect x="546" y="0" width="10" height="10" rx="2" fill="#21262d"><title>2026-04-05: 0 tokens</title></rect>
    <rect x="546" y="13" width="10" height="10" rx="2" fill="#21262d"><title>2026-04-06: 0 tokens</title></rect>
    <rect x="546" y="26" width="10" height="10" rx="2" fill="#21262d"><title>2026-04-07: 0 tokens</title></rect>
    <rect x="546" y="39" width="10" height="10" rx="2" fill="#21262d"><title>2026-04-08: 0 tokens</title></rect>
    <rect x="546" y="52" width="10" height="10" rx="2" fill="#21262d"><title>2026-04-09: 0 tokens</title></rect>
    <rect x="546" y="65" width="10" height="10" rx="2" fill="#21262d"><title>2026-04-10: 0 tokens</title></rect>
    <rect x="546" y="78" width="10" height="10" rx="2" fill="#21262d"><title>2026-04-11: 0 tokens</title></rect>
    <rect x="559" y="0" width="10" height="10" rx="2" fill="#21262d"><title>2026-04-12: 0 tokens</title></rect>
    <rect x="559" y="13" width="10" height="10" rx="2" fill="#21262d"><title>2026-04-13: 0 tokens</title></rect>
    <rect x="559" y="26" width="10" height="10" rx="2" fill="#21262d"><title>2026-04-14: 0 tokens</title></rect>
    <rect x="559" y="39" width="10" height="10" rx="2" fill="#21262d"><title>2026-04-15: 0 tokens</title></rect>
    <rect x="559" y="52" width="10" height="10" rx="2" fill="#21262d"><title>2026-04-16: 0 tokens</title></rect>
    <rect x="559" y="65" width="10" height="10" rx="2" fill="#21262d"><title>2026-04-17: 0 tokens</title></rect>
    <rect x="559" y="78" width="10" height="10" rx="2" fill="#21262d"><title>2026-04-18: 0 tokens</title></rect>
    <rect x="572" y="0" width="10" height="10" rx="2" fill="#21262d"><title>2026-04-19: 0 tokens</title></rect>
    <rect x="572" y="13" width="10" height="10" rx="2" fill="#21262d"><title>2026-04-20: 0 tokens</title></rect>
    <rect x="572" y="26" width="10" height="10" rx="2" fill="#21262d"><title>2026-04-21: 0 tokens</title></rect>
    <rect x="572" y="39" width="10" height="10" rx="2" fill="#21262d"><title>2026-04-22: 0 tokens</title></rect>
    <rect x="572" y="52" width="10" height="10" rx="2" fill="#21262d"><title>2026-04-23: 0 tokens</title></rect>
    <rect x="572" y="65" width="10" height="10" rx="2" fill="#21262d"><title>2026-04-24: 0 tokens</title></rect>
    <rect x="572" y="78" width="10" height="10" rx="2" fill="#21262d"><title>2026-04-25: 0 tokens</title></rect>
    <rect x="585" y="0" width="10" height="10" rx="2" fill="#21262d"><title>2026-04-26: 0 tokens</title></rect>
    <rect x="585" y="13" width="10" height="10" rx="2" fill="#21262d"><title>2026-04-27: 0 tokens</title></rect>
    <rect x="585" y="26" width="10" height="10" rx="2" fill="#21262d"><title>2026-04-28: 0 tokens</title></rect>
    <rect x="585" y="39" width="10" height="10" rx="2" fill="#21262d"><title>2026-04-29: 0 tokens</title></rect>
    <rect x="585" y="52" width="10" height="10" rx="2" fill="#21262d"><title>2026-04-30: 0 tokens</title></rect>
    <rect x="585" y="65" width="10" height="10" rx="2" fill="#21262d"><title>2026-05-01: 0 tokens</title></rect>
    <rect x="585" y="78" width="10" height="10" rx="2" fill="#21262d"><title>2026-05-02: 0 tokens</title></rect>
    <rect x="598" y="0" width="10" height="10" rx="2" fill="#21262d"><title>2026-05-03: 0 tokens</title></rect>
    <rect x="598" y="13" width="10" height="10" rx="2" fill="#21262d"><title>2026-05-04: 0 tokens</title></rect>
    <rect x="598" y="26" width="10" height="10" rx="2" fill="#21262d"><title>2026-05-05: 0 tokens</title></rect>
    <rect x="598" y="39" width="10" height="10" rx="2" fill="#21262d"><title>2026-05-06: 0 tokens</title></rect>
    <rect x="598" y="52" width="10" height="10" rx="2" fill="#21262d"><title>2026-05-07: 0 tokens</title></rect>
    <rect x="598" y="65" width="10" height="10" rx="2" fill="#21262d"><title>2026-05-08: 0 tokens</title></rect>
    <rect x="598" y="78" width="10" height="10" rx="2" fill="#21262d"><title>2026-05-09: 0 tokens</title></rect>
    <rect x="611" y="0" width="10" height="10" rx="2" fill="#21262d"><title>2026-05-10: 0 tokens</title></rect>
    <rect x="611" y="13" width="10" height="10" rx="2" fill="#21262d"><title>2026-05-11: 0 tokens</title></rect>
    <rect x="611" y="26" width="10" height="10" rx="2" fill="#21262d"><title>2026-05-12: 0 tokens</title></rect>
    <rect x="611" y="39" width="10" height="10" rx="2" fill="#21262d"><title>2026-05-13: 0 tokens</title></rect>
    <rect x="611" y="52" width="10" height="10" rx="2" fill="#21262d"><title>2026-05-14: 0 tokens</title></rect>
    <rect x="611" y="65" width="10" height="10" rx="2" fill="#21262d"><title>2026-05-15: 0 tokens</title></rect>
    <rect x="611" y="78" width="10" height="10" rx="2" fill="#21262d"><title>2026-05-16: 0 tokens</title></rect>
    <rect x="624" y="0" width="10" height="10" rx="2" fill="#21262d"><title>2026-05-17: 0 tokens</title></rect>
    <rect x="624" y="13" width="10" height="10" rx="2" fill="#21262d"><title>2026-05-18: 0 tokens</title></rect>
    <rect x="624" y="26" width="10" height="10" rx="2" fill="#21262d"><title>2026-05-19: 0 tokens</title></rect>
    <rect x="624" y="39" width="10" height="10" rx="2" fill="#21262d"><title>2026-05-20: 0 tokens</title></rect>
    <rect x="624" y="52" width="10" height="10" rx="2" fill="#21262d"><title>2026-05-21: 0 tokens</title></rect>
    <rect x="624" y="65" width="10" height="10" rx="2" fill="#21262d"><title>2026-05-22: 0 tokens</title></rect>
    <rect x="624" y="78" width="10" height="10" rx="2" fill="#c18013"><title>2026-05-23: 597.7K tokens (Claude Code 597.7K)</title></rect>
    <rect x="637" y="0" width="10" height="10" rx="2" fill="#c18113"><title>2026-05-24: 633.1K tokens (Claude Code 633.1K)</title></rect>
    <rect x="637" y="13" width="10" height="10" rx="2" fill="#b47915"><title>2026-05-25: 126.9K tokens (Claude Code 126.9K)</title></rect>
    <rect x="637" y="26" width="10" height="10" rx="2" fill="#b57a15"><title>2026-05-26: 133.9K tokens (Claude Code 133.9K)</title></rect>
    <rect x="637" y="39" width="10" height="10" rx="2" fill="#bb7d14"><title>2026-05-27: 309.3K tokens (Claude Code 309.3K)</title></rect>
    <rect x="637" y="52" width="10" height="10" rx="2" fill="#aa7417"><title>2026-05-28: 33.6K tokens (Claude Code 33.6K)</title></rect>
    <rect x="637" y="65" width="10" height="10" rx="2" fill="#5ea1f4"><title>2026-05-29: 224.9M tokens (Codex 223.1M, Claude Code 1.8M)</title></rect>
    <rect x="637" y="78" width="10" height="10" rx="2" fill="#5fa2f6"><title>2026-05-30: 276.2M tokens (Codex 262.5M, Claude Code 13.7M)</title></rect>
    <rect x="650" y="0" width="10" height="10" rx="2" fill="#5ea2f5"><title>2026-05-31: 234.1M tokens (Codex 207.5M, Claude Code 26.6M)</title></rect>
    <rect x="650" y="13" width="10" height="10" rx="2" fill="#5896e1"><title>2026-06-01: 18.5M tokens (Codex 18.4M, Claude Code 101.7K)</title></rect>
    <rect x="650" y="26" width="10" height="10" rx="2" fill="#21262d"><title>2026-06-02: 0 tokens</title></rect>
    <rect x="650" y="39" width="10" height="10" rx="2" fill="#c18013"><title>2026-06-03: 598.7K tokens (Claude Code 598.7K)</title></rect>
    <rect x="650" y="52" width="10" height="10" rx="2" fill="#21262d"><title>2026-06-04: 0 tokens</title></rect>
    <rect x="650" y="65" width="10" height="10" rx="2" fill="#21262d"><title>2026-06-05: 0 tokens</title></rect>
    <rect x="650" y="78" width="10" height="10" rx="2" fill="#21262d"><title>2026-06-06: 0 tokens</title></rect>
    <rect x="663" y="0" width="10" height="10" rx="2" fill="#21262d"><title>2026-06-07: 0 tokens</title></rect>
    <rect x="663" y="13" width="10" height="10" rx="2" fill="#b37816"><title>2026-06-08: 102.2K tokens (Claude Code 102.2K)</title></rect>
    <rect x="663" y="26" width="10" height="10" rx="2" fill="#c18113"><title>2026-06-09: 648.0K tokens (Claude Code 648.0K)</title></rect>
    <rect x="663" y="39" width="10" height="10" rx="2" fill="#a47018"><title>2026-06-10: 15.6K tokens (Claude Code 15.6K)</title></rect>
    <rect x="663" y="52" width="10" height="10" rx="2" fill="#21262d"><title>2026-06-11: 0 tokens</title></rect>
    <rect x="663" y="65" width="10" height="10" rx="2" fill="#21262d"><title>2026-06-12: 0 tokens</title></rect>
    <rect x="663" y="78" width="10" height="10" rx="2" fill="#bd7e14"><title>2026-06-13: 359.0K tokens (Claude Code 359.0K)</title></rect>
    <rect x="676" y="0" width="10" height="10" rx="2" fill="#548dd3"><title>2026-06-14: 2.6M tokens (Codex 2.5M, Claude Code 139.6K)</title></rect>
  </g>

  <text x="24" y="514" fill="#4b5563" font-size="11" font-family="system-ui,sans-serif">Cell color shows the dominant system per day; brightness shows total tokens.</text>
  <text x="916" y="514" fill="#4b5563" font-size="11" font-family="system-ui,sans-serif" text-anchor="end">local aggregate counters only; no prompts or responses published</text>
</svg>