<svg width="830" height="404" viewBox="0 0 830 404" xmlns="http://www.w3.org/2000/svg">
  <rect width="830" height="404" rx="12" fill="#0d1117" stroke="#30363d" stroke-width="1"/>

  <!-- title row -->
  <text x="22" y="48" fill="#e6edf3" font-size="17" font-weight="600" font-family="system-ui,sans-serif">&#x26A1; Claude Code</text>
  <text x="174" y="48" fill="#3b82f6" font-size="14" font-family="monospace">@localastronaut</text>
  <text x="808" y="48" fill="#4b5563" font-size="11" font-family="monospace" text-anchor="end">updated 2026-06-14</text>

  <!-- stat cards -->
  <rect x="22" y="68" width="256" height="72" rx="6" fill="#161b22" stroke="#30363d" stroke-width="1"/>
  <text x="35" y="90" fill="#7d8590" font-size="11.5" font-family="system-ui,sans-serif">Sessions</text>
  <text x="35" y="120" fill="#e6edf3" font-size="22" font-weight="700" font-family="system-ui,sans-serif">20</text>
  <rect x="286" y="68" width="256" height="72" rx="6" fill="#161b22" stroke="#30363d" stroke-width="1"/>
  <text x="299" y="90" fill="#7d8590" font-size="11.5" font-family="system-ui,sans-serif">Messages</text>
  <text x="299" y="120" fill="#e6edf3" font-size="22" font-weight="700" font-family="system-ui,sans-serif">8,737</text>
  <rect x="550" y="68" width="256" height="72" rx="6" fill="#161b22" stroke="#30363d" stroke-width="1"/>
  <text x="563" y="90" fill="#7d8590" font-size="11.5" font-family="system-ui,sans-serif">Total tokens</text>
  <text x="563" y="120" fill="#e6edf3" font-size="22" font-weight="700" font-family="system-ui,sans-serif">45.9M</text>
  <rect x="22" y="148" width="256" height="72" rx="6" fill="#161b22" stroke="#30363d" stroke-width="1"/>
  <text x="35" y="170" fill="#7d8590" font-size="11.5" font-family="system-ui,sans-serif">Active days</text>
  <text x="35" y="200" fill="#e6edf3" font-size="22" font-weight="700" font-family="system-ui,sans-serif">16</text>
  <rect x="286" y="148" width="256" height="72" rx="6" fill="#161b22" stroke="#30363d" stroke-width="1"/>
  <text x="299" y="170" fill="#7d8590" font-size="11.5" font-family="system-ui,sans-serif">Longest streak</text>
  <text x="299" y="200" fill="#e6edf3" font-size="22" font-weight="700" font-family="system-ui,sans-serif">10d</text>
  <rect x="550" y="148" width="256" height="72" rx="6" fill="#161b22" stroke="#30363d" stroke-width="1"/>
  <text x="563" y="170" fill="#7d8590" font-size="11.5" font-family="system-ui,sans-serif">Favorite model</text>
  <text x="563" y="200" fill="#e6edf3" font-size="22" font-weight="700" font-family="system-ui,sans-serif">Opus 4.8</text>

  <!-- heatmap section -->
  <text x="22" y="248" fill="#7d8590" font-size="12" font-family="system-ui,sans-serif">Token activity</text>

  <g transform="translate(22,264)">
    <text x="0" y="-5" fill="#7d8590" font-size="9" font-family="monospace">Jun</text>
    <text x="24" y="-5" fill="#7d8590" font-size="9" font-family="monospace">Jul</text>
    <text x="72" y="-5" fill="#7d8590" font-size="9" font-family="monospace">Aug</text>
    <text x="132" y="-5" fill="#7d8590" font-size="9" font-family="monospace">Sep</text>
    <text x="180" y="-5" fill="#7d8590" font-size="9" font-family="monospace">Oct</text>
    <text x="228" y="-5" fill="#7d8590" font-size="9" font-family="monospace">Nov</text>
    <text x="288" y="-5" fill="#7d8590" font-size="9" font-family="monospace">Dec</text>
    <text x="336" y="-5" fill="#7d8590" font-size="9" font-family="monospace">Jan</text>
    <text x="396" y="-5" fill="#7d8590" font-size="9" font-family="monospace">Feb</text>
    <text x="444" y="-5" fill="#7d8590" font-size="9" font-family="monospace">Mar</text>
    <text x="492" y="-5" fill="#7d8590" font-size="9" font-family="monospace">Apr</text>
    <text x="540" y="-5" fill="#7d8590" font-size="9" font-family="monospace">May</text>
    <rect x="0" y="0" width="10" height="10" rx="2" fill="#21262d"><title>2025-06-15: 0 tokens</title></rect>
    <rect x="0" y="12" width="10" height="10" rx="2" fill="#21262d"><title>2025-06-16: 0 tokens</title></rect>
    <rect x="0" y="24" width="10" height="10" rx="2" fill="#21262d"><title>2025-06-17: 0 tokens</title></rect>
    <rect x="0" y="36" width="10" height="10" rx="2" fill="#21262d"><title>2025-06-18: 0 tokens</title></rect>
    <rect x="0" y="48" width="10" height="10" rx="2" fill="#21262d"><title>2025-06-19: 0 tokens</title></rect>
    <rect x="0" y="60" width="10" height="10" rx="2" fill="#21262d"><title>2025-06-20: 0 tokens</title></rect>
    <rect x="0" y="72" width="10" height="10" rx="2" fill="#21262d"><title>2025-06-21: 0 tokens</title></rect>
    <rect x="12" y="0" width="10" height="10" rx="2" fill="#21262d"><title>2025-06-22: 0 tokens</title></rect>
    <rect x="12" y="12" width="10" height="10" rx="2" fill="#21262d"><title>2025-06-23: 0 tokens</title></rect>
    <rect x="12" y="24" width="10" height="10" rx="2" fill="#21262d"><title>2025-06-24: 0 tokens</title></rect>
    <rect x="12" y="36" width="10" height="10" rx="2" fill="#21262d"><title>2025-06-25: 0 tokens</title></rect>
    <rect x="12" y="48" width="10" height="10" rx="2" fill="#21262d"><title>2025-06-26: 0 tokens</title></rect>
    <rect x="12" y="60" width="10" height="10" rx="2" fill="#21262d"><title>2025-06-27: 0 tokens</title></rect>
    <rect x="12" y="72" width="10" height="10" rx="2" fill="#21262d"><title>2025-06-28: 0 tokens</title></rect>
    <rect x="24" y="0" width="10" height="10" rx="2" fill="#21262d"><title>2025-06-29: 0 tokens</title></rect>
    <rect x="24" y="12" width="10" height="10" rx="2" fill="#21262d"><title>2025-06-30: 0 tokens</title></rect>
    <rect x="24" y="24" width="10" height="10" rx="2" fill="#21262d"><title>2025-07-01: 0 tokens</title></rect>
    <rect x="24" y="36" width="10" height="10" rx="2" fill="#21262d"><title>2025-07-02: 0 tokens</title></rect>
    <rect x="24" y="48" width="10" height="10" rx="2" fill="#21262d"><title>2025-07-03: 0 tokens</title></rect>
    <rect x="24" y="60" width="10" height="10" rx="2" fill="#21262d"><title>2025-07-04: 0 tokens</title></rect>
    <rect x="24" y="72" width="10" height="10" rx="2" fill="#21262d"><title>2025-07-05: 0 tokens</title></rect>
    <rect x="36" y="0" width="10" height="10" rx="2" fill="#21262d"><title>2025-07-06: 0 tokens</title></rect>
    <rect x="36" y="12" width="10" height="10" rx="2" fill="#21262d"><title>2025-07-07: 0 tokens</title></rect>
    <rect x="36" y="24" width="10" height="10" rx="2" fill="#21262d"><title>2025-07-08: 0 tokens</title></rect>
    <rect x="36" y="36" width="10" height="10" rx="2" fill="#21262d"><title>2025-07-09: 0 tokens</title></rect>
    <rect x="36" y="48" width="10" height="10" rx="2" fill="#21262d"><title>2025-07-10: 0 tokens</title></rect>
    <rect x="36" y="60" width="10" height="10" rx="2" fill="#21262d"><title>2025-07-11: 0 tokens</title></rect>
    <rect x="36" y="72" width="10" height="10" rx="2" fill="#21262d"><title>2025-07-12: 0 tokens</title></rect>
    <rect x="48" y="0" width="10" height="10" rx="2" fill="#21262d"><title>2025-07-13: 0 tokens</title></rect>
    <rect x="48" y="12" width="10" height="10" rx="2" fill="#21262d"><title>2025-07-14: 0 tokens</title></rect>
    <rect x="48" y="24" width="10" height="10" rx="2" fill="#21262d"><title>2025-07-15: 0 tokens</title></rect>
    <rect x="48" y="36" width="10" height="10" rx="2" fill="#21262d"><title>2025-07-16: 0 tokens</title></rect>
    <rect x="48" y="48" width="10" height="10" rx="2" fill="#21262d"><title>2025-07-17: 0 tokens</title></rect>
    <rect x="48" y="60" width="10" height="10" rx="2" fill="#21262d"><title>2025-07-18: 0 tokens</title></rect>
    <rect x="48" y="72" width="10" height="10" rx="2" fill="#21262d"><title>2025-07-19: 0 tokens</title></rect>
    <rect x="60" y="0" width="10" height="10" rx="2" fill="#21262d"><title>2025-07-20: 0 tokens</title></rect>
    <rect x="60" y="12" width="10" height="10" rx="2" fill="#21262d"><title>2025-07-21: 0 tokens</title></rect>
    <rect x="60" y="24" width="10" height="10" rx="2" fill="#21262d"><title>2025-07-22: 0 tokens</title></rect>
    <rect x="60" y="36" width="10" height="10" rx="2" fill="#21262d"><title>2025-07-23: 0 tokens</title></rect>
    <rect x="60" y="48" width="10" height="10" rx="2" fill="#21262d"><title>2025-07-24: 0 tokens</title></rect>
    <rect x="60" y="60" width="10" height="10" rx="2" fill="#21262d"><title>2025-07-25: 0 tokens</title></rect>
    <rect x="60" y="72" width="10" height="10" rx="2" fill="#21262d"><title>2025-07-26: 0 tokens</title></rect>
    <rect x="72" y="0" width="10" height="10" rx="2" fill="#21262d"><title>2025-07-27: 0 tokens</title></rect>
    <rect x="72" y="12" width="10" height="10" rx="2" fill="#21262d"><title>2025-07-28: 0 tokens</title></rect>
    <rect x="72" y="24" width="10" height="10" rx="2" fill="#21262d"><title>2025-07-29: 0 tokens</title></rect>
    <rect x="72" y="36" width="10" height="10" rx="2" fill="#21262d"><title>2025-07-30: 0 tokens</title></rect>
    <rect x="72" y="48" width="10" height="10" rx="2" fill="#21262d"><title>2025-07-31: 0 tokens</title></rect>
    <rect x="72" y="60" width="10" height="10" rx="2" fill="#21262d"><title>2025-08-01: 0 tokens</title></rect>
    <rect x="72" y="72" width="10" height="10" rx="2" fill="#21262d"><title>2025-08-02: 0 tokens</title></rect>
    <rect x="84" y="0" width="10" height="10" rx="2" fill="#21262d"><title>2025-08-03: 0 tokens</title></rect>
    <rect x="84" y="12" width="10" height="10" rx="2" fill="#21262d"><title>2025-08-04: 0 tokens</title></rect>
    <rect x="84" y="24" width="10" height="10" rx="2" fill="#21262d"><title>2025-08-05: 0 tokens</title></rect>
    <rect x="84" y="36" width="10" height="10" rx="2" fill="#21262d"><title>2025-08-06: 0 tokens</title></rect>
    <rect x="84" y="48" width="10" height="10" rx="2" fill="#21262d"><title>2025-08-07: 0 tokens</title></rect>
    <rect x="84" y="60" width="10" height="10" rx="2" fill="#21262d"><title>2025-08-08: 0 tokens</title></rect>
    <rect x="84" y="72" width="10" height="10" rx="2" fill="#21262d"><title>2025-08-09: 0 tokens</title></rect>
    <rect x="96" y="0" width="10" height="10" rx="2" fill="#21262d"><title>2025-08-10: 0 tokens</title></rect>
    <rect x="96" y="12" width="10" height="10" rx="2" fill="#21262d"><title>2025-08-11: 0 tokens</title></rect>
    <rect x="96" y="24" width="10" height="10" rx="2" fill="#21262d"><title>2025-08-12: 0 tokens</title></rect>
    <rect x="96" y="36" width="10" height="10" rx="2" fill="#21262d"><title>2025-08-13: 0 tokens</title></rect>
    <rect x="96" y="48" width="10" height="10" rx="2" fill="#21262d"><title>2025-08-14: 0 tokens</title></rect>
    <rect x="96" y="60" width="10" height="10" rx="2" fill="#21262d"><title>2025-08-15: 0 tokens</title></rect>
    <rect x="96" y="72" width="10" height="10" rx="2" fill="#21262d"><title>2025-08-16: 0 tokens</title></rect>
    <rect x="108" y="0" width="10" height="10" rx="2" fill="#21262d"><title>2025-08-17: 0 tokens</title></rect>
    <rect x="108" y="12" width="10" height="10" rx="2" fill="#21262d"><title>2025-08-18: 0 tokens</title></rect>
    <rect x="108" y="24" width="10" height="10" rx="2" fill="#21262d"><title>2025-08-19: 0 tokens</title></rect>
    <rect x="108" y="36" width="10" height="10" rx="2" fill="#21262d"><title>2025-08-20: 0 tokens</title></rect>
    <rect x="108" y="48" width="10" height="10" rx="2" fill="#21262d"><title>2025-08-21: 0 tokens</title></rect>
    <rect x="108" y="60" width="10" height="10" rx="2" fill="#21262d"><title>2025-08-22: 0 tokens</title></rect>
    <rect x="108" y="72" width="10" height="10" rx="2" fill="#21262d"><title>2025-08-23: 0 tokens</title></rect>
    <rect x="120" y="0" width="10" height="10" rx="2" fill="#21262d"><title>2025-08-24: 0 tokens</title></rect>
    <rect x="120" y="12" width="10" height="10" rx="2" fill="#21262d"><title>2025-08-25: 0 tokens</title></rect>
    <rect x="120" y="24" width="10" height="10" rx="2" fill="#21262d"><title>2025-08-26: 0 tokens</title></rect>
    <rect x="120" y="36" width="10" height="10" rx="2" fill="#21262d"><title>2025-08-27: 0 tokens</title></rect>
    <rect x="120" y="48" width="10" height="10" rx="2" fill="#21262d"><title>2025-08-28: 0 tokens</title></rect>
    <rect x="120" y="60" width="10" height="10" rx="2" fill="#21262d"><title>2025-08-29: 0 tokens</title></rect>
    <rect x="120" y="72" width="10" height="10" rx="2" fill="#21262d"><title>2025-08-30: 0 tokens</title></rect>
    <rect x="132" y="0" width="10" height="10" rx="2" fill="#21262d"><title>2025-08-31: 0 tokens</title></rect>
    <rect x="132" y="12" width="10" height="10" rx="2" fill="#21262d"><title>2025-09-01: 0 tokens</title></rect>
    <rect x="132" y="24" width="10" height="10" rx="2" fill="#21262d"><title>2025-09-02: 0 tokens</title></rect>
    <rect x="132" y="36" width="10" height="10" rx="2" fill="#21262d"><title>2025-09-03: 0 tokens</title></rect>
    <rect x="132" y="48" width="10" height="10" rx="2" fill="#21262d"><title>2025-09-04: 0 tokens</title></rect>
    <rect x="132" y="60" width="10" height="10" rx="2" fill="#21262d"><title>2025-09-05: 0 tokens</title></rect>
    <rect x="132" y="72" width="10" height="10" rx="2" fill="#21262d"><title>2025-09-06: 0 tokens</title></rect>
    <rect x="144" y="0" width="10" height="10" rx="2" fill="#21262d"><title>2025-09-07: 0 tokens</title></rect>
    <rect x="144" y="12" width="10" height="10" rx="2" fill="#21262d"><title>2025-09-08: 0 tokens</title></rect>
    <rect x="144" y="24" width="10" height="10" rx="2" fill="#21262d"><title>2025-09-09: 0 tokens</title></rect>
    <rect x="144" y="36" width="10" height="10" rx="2" fill="#21262d"><title>2025-09-10: 0 tokens</title></rect>
    <rect x="144" y="48" width="10" height="10" rx="2" fill="#21262d"><title>2025-09-11: 0 tokens</title></rect>
    <rect x="144" y="60" width="10" height="10" rx="2" fill="#21262d"><title>2025-09-12: 0 tokens</title></rect>
    <rect x="144" y="72" width="10" height="10" rx="2" fill="#21262d"><title>2025-09-13: 0 tokens</title></rect>
    <rect x="156" y="0" width="10" height="10" rx="2" fill="#21262d"><title>2025-09-14: 0 tokens</title></rect>
    <rect x="156" y="12" width="10" height="10" rx="2" fill="#21262d"><title>2025-09-15: 0 tokens</title></rect>
    <rect x="156" y="24" width="10" height="10" rx="2" fill="#21262d"><title>2025-09-16: 0 tokens</title></rect>
    <rect x="156" y="36" width="10" height="10" rx="2" fill="#21262d"><title>2025-09-17: 0 tokens</title></rect>
    <rect x="156" y="48" width="10" height="10" rx="2" fill="#21262d"><title>2025-09-18: 0 tokens</title></rect>
    <rect x="156" y="60" width="10" height="10" rx="2" fill="#21262d"><title>2025-09-19: 0 tokens</title></rect>
    <rect x="156" y="72" width="10" height="10" rx="2" fill="#21262d"><title>2025-09-20: 0 tokens</title></rect>
    <rect x="168" y="0" width="10" height="10" rx="2" fill="#21262d"><title>2025-09-21: 0 tokens</title></rect>
    <rect x="168" y="12" width="10" height="10" rx="2" fill="#21262d"><title>2025-09-22: 0 tokens</title></rect>
    <rect x="168" y="24" width="10" height="10" rx="2" fill="#21262d"><title>2025-09-23: 0 tokens</title></rect>
    <rect x="168" y="36" width="10" height="10" rx="2" fill="#21262d"><title>2025-09-24: 0 tokens</title></rect>
    <rect x="168" y="48" width="10" height="10" rx="2" fill="#21262d"><title>2025-09-25: 0 tokens</title></rect>
    <rect x="168" y="60" width="10" height="10" rx="2" fill="#21262d"><title>2025-09-26: 0 tokens</title></rect>
    <rect x="168" y="72" width="10" height="10" rx="2" fill="#21262d"><title>2025-09-27: 0 tokens</title></rect>
    <rect x="180" y="0" width="10" height="10" rx="2" fill="#21262d"><title>2025-09-28: 0 tokens</title></rect>
    <rect x="180" y="12" width="10" height="10" rx="2" fill="#21262d"><title>2025-09-29: 0 tokens</title></rect>
    <rect x="180" y="24" width="10" height="10" rx="2" fill="#21262d"><title>2025-09-30: 0 tokens</title></rect>
    <rect x="180" y="36" width="10" height="10" rx="2" fill="#21262d"><title>2025-10-01: 0 tokens</title></rect>
    <rect x="180" y="48" width="10" height="10" rx="2" fill="#21262d"><title>2025-10-02: 0 tokens</title></rect>
    <rect x="180" y="60" width="10" height="10" rx="2" fill="#21262d"><title>2025-10-03: 0 tokens</title></rect>
    <rect x="180" y="72" width="10" height="10" rx="2" fill="#21262d"><title>2025-10-04: 0 tokens</title></rect>
    <rect x="192" y="0" width="10" height="10" rx="2" fill="#21262d"><title>2025-10-05: 0 tokens</title></rect>
    <rect x="192" y="12" width="10" height="10" rx="2" fill="#21262d"><title>2025-10-06: 0 tokens</title></rect>
    <rect x="192" y="24" width="10" height="10" rx="2" fill="#21262d"><title>2025-10-07: 0 tokens</title></rect>
    <rect x="192" y="36" width="10" height="10" rx="2" fill="#21262d"><title>2025-10-08: 0 tokens</title></rect>
    <rect x="192" y="48" width="10" height="10" rx="2" fill="#21262d"><title>2025-10-09: 0 tokens</title></rect>
    <rect x="192" y="60" width="10" height="10" rx="2" fill="#21262d"><title>2025-10-10: 0 tokens</title></rect>
    <rect x="192" y="72" width="10" height="10" rx="2" fill="#21262d"><title>2025-10-11: 0 tokens</title></rect>
    <rect x="204" y="0" width="10" height="10" rx="2" fill="#21262d"><title>2025-10-12: 0 tokens</title></rect>
    <rect x="204" y="12" width="10" height="10" rx="2" fill="#21262d"><title>2025-10-13: 0 tokens</title></rect>
    <rect x="204" y="24" width="10" height="10" rx="2" fill="#21262d"><title>2025-10-14: 0 tokens</title></rect>
    <rect x="204" y="36" width="10" height="10" rx="2" fill="#21262d"><title>2025-10-15: 0 tokens</title></rect>
    <rect x="204" y="48" width="10" height="10" rx="2" fill="#21262d"><title>2025-10-16: 0 tokens</title></rect>
    <rect x="204" y="60" width="10" height="10" rx="2" fill="#21262d"><title>2025-10-17: 0 tokens</title></rect>
    <rect x="204" y="72" width="10" height="10" rx="2" fill="#21262d"><title>2025-10-18: 0 tokens</title></rect>
    <rect x="216" y="0" width="10" height="10" rx="2" fill="#21262d"><title>2025-10-19: 0 tokens</title></rect>
    <rect x="216" y="12" width="10" height="10" rx="2" fill="#21262d"><title>2025-10-20: 0 tokens</title></rect>
    <rect x="216" y="24" width="10" height="10" rx="2" fill="#21262d"><title>2025-10-21: 0 tokens</title></rect>
    <rect x="216" y="36" width="10" height="10" rx="2" fill="#21262d"><title>2025-10-22: 0 tokens</title></rect>
    <rect x="216" y="48" width="10" height="10" rx="2" fill="#21262d"><title>2025-10-23: 0 tokens</title></rect>
    <rect x="216" y="60" width="10" height="10" rx="2" fill="#21262d"><title>2025-10-24: 0 tokens</title></rect>
    <rect x="216" y="72" width="10" height="10" rx="2" fill="#21262d"><title>2025-10-25: 0 tokens</title></rect>
    <rect x="228" y="0" width="10" height="10" rx="2" fill="#21262d"><title>2025-10-26: 0 tokens</title></rect>
    <rect x="228" y="12" width="10" height="10" rx="2" fill="#21262d"><title>2025-10-27: 0 tokens</title></rect>
    <rect x="228" y="24" width="10" height="10" rx="2" fill="#21262d"><title>2025-10-28: 0 tokens</title></rect>
    <rect x="228" y="36" width="10" height="10" rx="2" fill="#21262d"><title>2025-10-29: 0 tokens</title></rect>
    <rect x="228" y="48" width="10" height="10" rx="2" fill="#21262d"><title>2025-10-30: 0 tokens</title></rect>
    <rect x="228" y="60" width="10" height="10" rx="2" fill="#21262d"><title>2025-10-31: 0 tokens</title></rect>
    <rect x="228" y="72" width="10" height="10" rx="2" fill="#21262d"><title>2025-11-01: 0 tokens</title></rect>
    <rect x="240" y="0" width="10" height="10" rx="2" fill="#21262d"><title>2025-11-02: 0 tokens</title></rect>
    <rect x="240" y="12" width="10" height="10" rx="2" fill="#21262d"><title>2025-11-03: 0 tokens</title></rect>
    <rect x="240" y="24" width="10" height="10" rx="2" fill="#21262d"><title>2025-11-04: 0 tokens</title></rect>
    <rect x="240" y="36" width="10" height="10" rx="2" fill="#21262d"><title>2025-11-05: 0 tokens</title></rect>
    <rect x="240" y="48" width="10" height="10" rx="2" fill="#21262d"><title>2025-11-06: 0 tokens</title></rect>
    <rect x="240" y="60" width="10" height="10" rx="2" fill="#21262d"><title>2025-11-07: 0 tokens</title></rect>
    <rect x="240" y="72" width="10" height="10" rx="2" fill="#21262d"><title>2025-11-08: 0 tokens</title></rect>
    <rect x="252" y="0" width="10" height="10" rx="2" fill="#21262d"><title>2025-11-09: 0 tokens</title></rect>
    <rect x="252" y="12" width="10" height="10" rx="2" fill="#21262d"><title>2025-11-10: 0 tokens</title></rect>
    <rect x="252" y="24" width="10" height="10" rx="2" fill="#21262d"><title>2025-11-11: 0 tokens</title></rect>
    <rect x="252" y="36" width="10" height="10" rx="2" fill="#21262d"><title>2025-11-12: 0 tokens</title></rect>
    <rect x="252" y="48" width="10" height="10" rx="2" fill="#21262d"><title>2025-11-13: 0 tokens</title></rect>
    <rect x="252" y="60" width="10" height="10" rx="2" fill="#21262d"><title>2025-11-14: 0 tokens</title></rect>
    <rect x="252" y="72" width="10" height="10" rx="2" fill="#21262d"><title>2025-11-15: 0 tokens</title></rect>
    <rect x="264" y="0" width="10" height="10" rx="2" fill="#21262d"><title>2025-11-16: 0 tokens</title></rect>
    <rect x="264" y="12" width="10" height="10" rx="2" fill="#21262d"><title>2025-11-17: 0 tokens</title></rect>
    <rect x="264" y="24" width="10" height="10" rx="2" fill="#21262d"><title>2025-11-18: 0 tokens</title></rect>
    <rect x="264" y="36" width="10" height="10" rx="2" fill="#21262d"><title>2025-11-19: 0 tokens</title></rect>
    <rect x="264" y="48" width="10" height="10" rx="2" fill="#21262d"><title>2025-11-20: 0 tokens</title></rect>
    <rect x="264" y="60" width="10" height="10" rx="2" fill="#21262d"><title>2025-11-21: 0 tokens</title></rect>
    <rect x="264" y="72" width="10" height="10" rx="2" fill="#21262d"><title>2025-11-22: 0 tokens</title></rect>
    <rect x="276" y="0" width="10" height="10" rx="2" fill="#21262d"><title>2025-11-23: 0 tokens</title></rect>
    <rect x="276" y="12" width="10" height="10" rx="2" fill="#21262d"><title>2025-11-24: 0 tokens</title></rect>
    <rect x="276" y="24" width="10" height="10" rx="2" fill="#21262d"><title>2025-11-25: 0 tokens</title></rect>
    <rect x="276" y="36" width="10" height="10" rx="2" fill="#21262d"><title>2025-11-26: 0 tokens</title></rect>
    <rect x="276" y="48" width="10" height="10" rx="2" fill="#21262d"><title>2025-11-27: 0 tokens</title></rect>
    <rect x="276" y="60" width="10" height="10" rx="2" fill="#21262d"><title>2025-11-28: 0 tokens</title></rect>
    <rect x="276" y="72" width="10" height="10" rx="2" fill="#21262d"><title>2025-11-29: 0 tokens</title></rect>
    <rect x="288" y="0" width="10" height="10" rx="2" fill="#21262d"><title>2025-11-30: 0 tokens</title></rect>
    <rect x="288" y="12" width="10" height="10" rx="2" fill="#21262d"><title>2025-12-01: 0 tokens</title></rect>
    <rect x="288" y="24" width="10" height="10" rx="2" fill="#21262d"><title>2025-12-02: 0 tokens</title></rect>
    <rect x="288" y="36" width="10" height="10" rx="2" fill="#21262d"><title>2025-12-03: 0 tokens</title></rect>
    <rect x="288" y="48" width="10" height="10" rx="2" fill="#21262d"><title>2025-12-04: 0 tokens</title></rect>
    <rect x="288" y="60" width="10" height="10" rx="2" fill="#21262d"><title>2025-12-05: 0 tokens</title></rect>
    <rect x="288" y="72" width="10" height="10" rx="2" fill="#21262d"><title>2025-12-06: 0 tokens</title></rect>
    <rect x="300" y="0" width="10" height="10" rx="2" fill="#21262d"><title>2025-12-07: 0 tokens</title></rect>
    <rect x="300" y="12" width="10" height="10" rx="2" fill="#21262d"><title>2025-12-08: 0 tokens</title></rect>
    <rect x="300" y="24" width="10" height="10" rx="2" fill="#21262d"><title>2025-12-09: 0 tokens</title></rect>
    <rect x="300" y="36" width="10" height="10" rx="2" fill="#21262d"><title>2025-12-10: 0 tokens</title></rect>
    <rect x="300" y="48" width="10" height="10" rx="2" fill="#21262d"><title>2025-12-11: 0 tokens</title></rect>
    <rect x="300" y="60" width="10" height="10" rx="2" fill="#21262d"><title>2025-12-12: 0 tokens</title></rect>
    <rect x="300" y="72" width="10" height="10" rx="2" fill="#21262d"><title>2025-12-13: 0 tokens</title></rect>
    <rect x="312" y="0" width="10" height="10" rx="2" fill="#21262d"><title>2025-12-14: 0 tokens</title></rect>
    <rect x="312" y="12" width="10" height="10" rx="2" fill="#21262d"><title>2025-12-15: 0 tokens</title></rect>
    <rect x="312" y="24" width="10" height="10" rx="2" fill="#21262d"><title>2025-12-16: 0 tokens</title></rect>
    <rect x="312" y="36" width="10" height="10" rx="2" fill="#21262d"><title>2025-12-17: 0 tokens</title></rect>
    <rect x="312" y="48" width="10" height="10" rx="2" fill="#21262d"><title>2025-12-18: 0 tokens</title></rect>
    <rect x="312" y="60" width="10" height="10" rx="2" fill="#21262d"><title>2025-12-19: 0 tokens</title></rect>
    <rect x="312" y="72" width="10" height="10" rx="2" fill="#21262d"><title>2025-12-20: 0 tokens</title></rect>
    <rect x="324" y="0" width="10" height="10" rx="2" fill="#21262d"><title>2025-12-21: 0 tokens</title></rect>
    <rect x="324" y="12" width="10" height="10" rx="2" fill="#21262d"><title>2025-12-22: 0 tokens</title></rect>
    <rect x="324" y="24" width="10" height="10" rx="2" fill="#21262d"><title>2025-12-23: 0 tokens</title></rect>
    <rect x="324" y="36" width="10" height="10" rx="2" fill="#21262d"><title>2025-12-24: 0 tokens</title></rect>
    <rect x="324" y="48" width="10" height="10" rx="2" fill="#21262d"><title>2025-12-25: 0 tokens</title></rect>
    <rect x="324" y="60" width="10" height="10" rx="2" fill="#21262d"><title>2025-12-26: 0 tokens</title></rect>
    <rect x="324" y="72" width="10" height="10" rx="2" fill="#21262d"><title>2025-12-27: 0 tokens</title></rect>
    <rect x="336" y="0" width="10" height="10" rx="2" fill="#21262d"><title>2025-12-28: 0 tokens</title></rect>
    <rect x="336" y="12" width="10" height="10" rx="2" fill="#21262d"><title>2025-12-29: 0 tokens</title></rect>
    <rect x="336" y="24" width="10" height="10" rx="2" fill="#21262d"><title>2025-12-30: 0 tokens</title></rect>
    <rect x="336" y="36" width="10" height="10" rx="2" fill="#21262d"><title>2025-12-31: 0 tokens</title></rect>
    <rect x="336" y="48" width="10" height="10" rx="2" fill="#21262d"><title>2026-01-01: 0 tokens</title></rect>
    <rect x="336" y="60" width="10" height="10" rx="2" fill="#21262d"><title>2026-01-02: 0 tokens</title></rect>
    <rect x="336" y="72" width="10" height="10" rx="2" fill="#21262d"><title>2026-01-03: 0 tokens</title></rect>
    <rect x="348" y="0" width="10" height="10" rx="2" fill="#21262d"><title>2026-01-04: 0 tokens</title></rect>
    <rect x="348" y="12" width="10" height="10" rx="2" fill="#21262d"><title>2026-01-05: 0 tokens</title></rect>
    <rect x="348" y="24" width="10" height="10" rx="2" fill="#21262d"><title>2026-01-06: 0 tokens</title></rect>
    <rect x="348" y="36" width="10" height="10" rx="2" fill="#21262d"><title>2026-01-07: 0 tokens</title></rect>
    <rect x="348" y="48" width="10" height="10" rx="2" fill="#21262d"><title>2026-01-08: 0 tokens</title></rect>
    <rect x="348" y="60" width="10" height="10" rx="2" fill="#21262d"><title>2026-01-09: 0 tokens</title></rect>
    <rect x="348" y="72" width="10" height="10" rx="2" fill="#21262d"><title>2026-01-10: 0 tokens</title></rect>
    <rect x="360" y="0" width="10" height="10" rx="2" fill="#21262d"><title>2026-01-11: 0 tokens</title></rect>
    <rect x="360" y="12" width="10" height="10" rx="2" fill="#21262d"><title>2026-01-12: 0 tokens</title></rect>
    <rect x="360" y="24" width="10" height="10" rx="2" fill="#21262d"><title>2026-01-13: 0 tokens</title></rect>
    <rect x="360" y="36" width="10" height="10" rx="2" fill="#21262d"><title>2026-01-14: 0 tokens</title></rect>
    <rect x="360" y="48" width="10" height="10" rx="2" fill="#21262d"><title>2026-01-15: 0 tokens</title></rect>
    <rect x="360" y="60" width="10" height="10" rx="2" fill="#21262d"><title>2026-01-16: 0 tokens</title></rect>
    <rect x="360" y="72" width="10" height="10" rx="2" fill="#21262d"><title>2026-01-17: 0 tokens</title></rect>
    <rect x="372" y="0" width="10" height="10" rx="2" fill="#21262d"><title>2026-01-18: 0 tokens</title></rect>
    <rect x="372" y="12" width="10" height="10" rx="2" fill="#21262d"><title>2026-01-19: 0 tokens</title></rect>
    <rect x="372" y="24" width="10" height="10" rx="2" fill="#21262d"><title>2026-01-20: 0 tokens</title></rect>
    <rect x="372" y="36" width="10" height="10" rx="2" fill="#21262d"><title>2026-01-21: 0 tokens</title></rect>
    <rect x="372" y="48" width="10" height="10" rx="2" fill="#21262d"><title>2026-01-22: 0 tokens</title></rect>
    <rect x="372" y="60" width="10" height="10" rx="2" fill="#21262d"><title>2026-01-23: 0 tokens</title></rect>
    <rect x="372" y="72" width="10" height="10" rx="2" fill="#21262d"><title>2026-01-24: 0 tokens</title></rect>
    <rect x="384" y="0" width="10" height="10" rx="2" fill="#21262d"><title>2026-01-25: 0 tokens</title></rect>
    <rect x="384" y="12" width="10" height="10" rx="2" fill="#21262d"><title>2026-01-26: 0 tokens</title></rect>
    <rect x="384" y="24" width="10" height="10" rx="2" fill="#21262d"><title>2026-01-27: 0 tokens</title></rect>
    <rect x="384" y="36" width="10" height="10" rx="2" fill="#21262d"><title>2026-01-28: 0 tokens</title></rect>
    <rect x="384" y="48" width="10" height="10" rx="2" fill="#21262d"><title>2026-01-29: 0 tokens</title></rect>
    <rect x="384" y="60" width="10" height="10" rx="2" fill="#21262d"><title>2026-01-30: 0 tokens</title></rect>
    <rect x="384" y="72" width="10" height="10" rx="2" fill="#21262d"><title>2026-01-31: 0 tokens</title></rect>
    <rect x="396" y="0" width="10" height="10" rx="2" fill="#21262d"><title>2026-02-01: 0 tokens</title></rect>
    <rect x="396" y="12" width="10" height="10" rx="2" fill="#21262d"><title>2026-02-02: 0 tokens</title></rect>
    <rect x="396" y="24" width="10" height="10" rx="2" fill="#21262d"><title>2026-02-03: 0 tokens</title></rect>
    <rect x="396" y="36" width="10" height="10" rx="2" fill="#21262d"><title>2026-02-04: 0 tokens</title></rect>
    <rect x="396" y="48" width="10" height="10" rx="2" fill="#21262d"><title>2026-02-05: 0 tokens</title></rect>
    <rect x="396" y="60" width="10" height="10" rx="2" fill="#21262d"><title>2026-02-06: 0 tokens</title></rect>
    <rect x="396" y="72" width="10" height="10" rx="2" fill="#21262d"><title>2026-02-07: 0 tokens</title></rect>
    <rect x="408" y="0" width="10" height="10" rx="2" fill="#21262d"><title>2026-02-08: 0 tokens</title></rect>
    <rect x="408" y="12" width="10" height="10" rx="2" fill="#21262d"><title>2026-02-09: 0 tokens</title></rect>
    <rect x="408" y="24" width="10" height="10" rx="2" fill="#21262d"><title>2026-02-10: 0 tokens</title></rect>
    <rect x="408" y="36" width="10" height="10" rx="2" fill="#21262d"><title>2026-02-11: 0 tokens</title></rect>
    <rect x="408" y="48" width="10" height="10" rx="2" fill="#21262d"><title>2026-02-12: 0 tokens</title></rect>
    <rect x="408" y="60" width="10" height="10" rx="2" fill="#21262d"><title>2026-02-13: 0 tokens</title></rect>
    <rect x="408" y="72" width="10" height="10" rx="2" fill="#21262d"><title>2026-02-14: 0 tokens</title></rect>
    <rect x="420" y="0" width="10" height="10" rx="2" fill="#21262d"><title>2026-02-15: 0 tokens</title></rect>
    <rect x="420" y="12" width="10" height="10" rx="2" fill="#21262d"><title>2026-02-16: 0 tokens</title></rect>
    <rect x="420" y="24" width="10" height="10" rx="2" fill="#21262d"><title>2026-02-17: 0 tokens</title></rect>
    <rect x="420" y="36" width="10" height="10" rx="2" fill="#21262d"><title>2026-02-18: 0 tokens</title></rect>
    <rect x="420" y="48" width="10" height="10" rx="2" fill="#21262d"><title>2026-02-19: 0 tokens</title></rect>
    <rect x="420" y="60" width="10" height="10" rx="2" fill="#21262d"><title>2026-02-20: 0 tokens</title></rect>
    <rect x="420" y="72" width="10" height="10" rx="2" fill="#21262d"><title>2026-02-21: 0 tokens</title></rect>
    <rect x="432" y="0" width="10" height="10" rx="2" fill="#21262d"><title>2026-02-22: 0 tokens</title></rect>
    <rect x="432" y="12" width="10" height="10" rx="2" fill="#21262d"><title>2026-02-23: 0 tokens</title></rect>
    <rect x="432" y="24" width="10" height="10" rx="2" fill="#21262d"><title>2026-02-24: 0 tokens</title></rect>
    <rect x="432" y="36" width="10" height="10" rx="2" fill="#21262d"><title>2026-02-25: 0 tokens</title></rect>
    <rect x="432" y="48" width="10" height="10" rx="2" fill="#21262d"><title>2026-02-26: 0 tokens</title></rect>
    <rect x="432" y="60" width="10" height="10" rx="2" fill="#21262d"><title>2026-02-27: 0 tokens</title></rect>
    <rect x="432" y="72" width="10" height="10" rx="2" fill="#21262d"><title>2026-02-28: 0 tokens</title></rect>
    <rect x="444" y="0" width="10" height="10" rx="2" fill="#21262d"><title>2026-03-01: 0 tokens</title></rect>
    <rect x="444" y="12" width="10" height="10" rx="2" fill="#21262d"><title>2026-03-02: 0 tokens</title></rect>
    <rect x="444" y="24" width="10" height="10" rx="2" fill="#21262d"><title>2026-03-03: 0 tokens</title></rect>
    <rect x="444" y="36" width="10" height="10" rx="2" fill="#21262d"><title>2026-03-04: 0 tokens</title></rect>
    <rect x="444" y="48" width="10" height="10" rx="2" fill="#21262d"><title>2026-03-05: 0 tokens</title></rect>
    <rect x="444" y="60" width="10" height="10" rx="2" fill="#21262d"><title>2026-03-06: 0 tokens</title></rect>
    <rect x="444" y="72" width="10" height="10" rx="2" fill="#21262d"><title>2026-03-07: 0 tokens</title></rect>
    <rect x="456" y="0" width="10" height="10" rx="2" fill="#21262d"><title>2026-03-08: 0 tokens</title></rect>
    <rect x="456" y="12" width="10" height="10" rx="2" fill="#21262d"><title>2026-03-09: 0 tokens</title></rect>
    <rect x="456" y="24" width="10" height="10" rx="2" fill="#21262d"><title>2026-03-10: 0 tokens</title></rect>
    <rect x="456" y="36" width="10" height="10" rx="2" fill="#21262d"><title>2026-03-11: 0 tokens</title></rect>
    <rect x="456" y="48" width="10" height="10" rx="2" fill="#21262d"><title>2026-03-12: 0 tokens</title></rect>
    <rect x="456" y="60" width="10" height="10" rx="2" fill="#21262d"><title>2026-03-13: 0 tokens</title></rect>
    <rect x="456" y="72" width="10" height="10" rx="2" fill="#21262d"><title>2026-03-14: 0 tokens</title></rect>
    <rect x="468" y="0" width="10" height="10" rx="2" fill="#21262d"><title>2026-03-15: 0 tokens</title></rect>
    <rect x="468" y="12" width="10" height="10" rx="2" fill="#21262d"><title>2026-03-16: 0 tokens</title></rect>
    <rect x="468" y="24" width="10" height="10" rx="2" fill="#21262d"><title>2026-03-17: 0 tokens</title></rect>
    <rect x="468" y="36" width="10" height="10" rx="2" fill="#21262d"><title>2026-03-18: 0 tokens</title></rect>
    <rect x="468" y="48" width="10" height="10" rx="2" fill="#21262d"><title>2026-03-19: 0 tokens</title></rect>
    <rect x="468" y="60" width="10" height="10" rx="2" fill="#21262d"><title>2026-03-20: 0 tokens</title></rect>
    <rect x="468" y="72" width="10" height="10" rx="2" fill="#21262d"><title>2026-03-21: 0 tokens</title></rect>
    <rect x="480" y="0" width="10" height="10" rx="2" fill="#21262d"><title>2026-03-22: 0 tokens</title></rect>
    <rect x="480" y="12" width="10" height="10" rx="2" fill="#21262d"><title>2026-03-23: 0 tokens</title></rect>
    <rect x="480" y="24" width="10" height="10" rx="2" fill="#21262d"><title>2026-03-24: 0 tokens</title></rect>
    <rect x="480" y="36" width="10" height="10" rx="2" fill="#21262d"><title>2026-03-25: 0 tokens</title></rect>
    <rect x="480" y="48" width="10" height="10" rx="2" fill="#21262d"><title>2026-03-26: 0 tokens</title></rect>
    <rect x="480" y="60" width="10" height="10" rx="2" fill="#21262d"><title>2026-03-27: 0 tokens</title></rect>
    <rect x="480" y="72" width="10" height="10" rx="2" fill="#21262d"><title>2026-03-28: 0 tokens</title></rect>
    <rect x="492" y="0" width="10" height="10" rx="2" fill="#21262d"><title>2026-03-29: 0 tokens</title></rect>
    <rect x="492" y="12" width="10" height="10" rx="2" fill="#21262d"><title>2026-03-30: 0 tokens</title></rect>
    <rect x="492" y="24" width="10" height="10" rx="2" fill="#21262d"><title>2026-03-31: 0 tokens</title></rect>
    <rect x="492" y="36" width="10" height="10" rx="2" fill="#21262d"><title>2026-04-01: 0 tokens</title></rect>
    <rect x="492" y="48" width="10" height="10" rx="2" fill="#21262d"><title>2026-04-02: 0 tokens</title></rect>
    <rect x="492" y="60" width="10" height="10" rx="2" fill="#21262d"><title>2026-04-03: 0 tokens</title></rect>
    <rect x="492" y="72" width="10" height="10" rx="2" fill="#21262d"><title>2026-04-04: 0 tokens</title></rect>
    <rect x="504" y="0" width="10" height="10" rx="2" fill="#21262d"><title>2026-04-05: 0 tokens</title></rect>
    <rect x="504" y="12" width="10" height="10" rx="2" fill="#21262d"><title>2026-04-06: 0 tokens</title></rect>
    <rect x="504" y="24" width="10" height="10" rx="2" fill="#21262d"><title>2026-04-07: 0 tokens</title></rect>
    <rect x="504" y="36" width="10" height="10" rx="2" fill="#21262d"><title>2026-04-08: 0 tokens</title></rect>
    <rect x="504" y="48" width="10" height="10" rx="2" fill="#21262d"><title>2026-04-09: 0 tokens</title></rect>
    <rect x="504" y="60" width="10" height="10" rx="2" fill="#21262d"><title>2026-04-10: 0 tokens</title></rect>
    <rect x="504" y="72" width="10" height="10" rx="2" fill="#21262d"><title>2026-04-11: 0 tokens</title></rect>
    <rect x="516" y="0" width="10" height="10" rx="2" fill="#21262d"><title>2026-04-12: 0 tokens</title></rect>
    <rect x="516" y="12" width="10" height="10" rx="2" fill="#21262d"><title>2026-04-13: 0 tokens</title></rect>
    <rect x="516" y="24" width="10" height="10" rx="2" fill="#21262d"><title>2026-04-14: 0 tokens</title></rect>
    <rect x="516" y="36" width="10" height="10" rx="2" fill="#21262d"><title>2026-04-15: 0 tokens</title></rect>
    <rect x="516" y="48" width="10" height="10" rx="2" fill="#21262d"><title>2026-04-16: 0 tokens</title></rect>
    <rect x="516" y="60" width="10" height="10" rx="2" fill="#21262d"><title>2026-04-17: 0 tokens</title></rect>
    <rect x="516" y="72" width="10" height="10" rx="2" fill="#21262d"><title>2026-04-18: 0 tokens</title></rect>
    <rect x="528" y="0" width="10" height="10" rx="2" fill="#21262d"><title>2026-04-19: 0 tokens</title></rect>
    <rect x="528" y="12" width="10" height="10" rx="2" fill="#21262d"><title>2026-04-20: 0 tokens</title></rect>
    <rect x="528" y="24" width="10" height="10" rx="2" fill="#21262d"><title>2026-04-21: 0 tokens</title></rect>
    <rect x="528" y="36" width="10" height="10" rx="2" fill="#21262d"><title>2026-04-22: 0 tokens</title></rect>
    <rect x="528" y="48" width="10" height="10" rx="2" fill="#21262d"><title>2026-04-23: 0 tokens</title></rect>
    <rect x="528" y="60" width="10" height="10" rx="2" fill="#21262d"><title>2026-04-24: 0 tokens</title></rect>
    <rect x="528" y="72" width="10" height="10" rx="2" fill="#21262d"><title>2026-04-25: 0 tokens</title></rect>
    <rect x="540" y="0" width="10" height="10" rx="2" fill="#21262d"><title>2026-04-26: 0 tokens</title></rect>
    <rect x="540" y="12" width="10" height="10" rx="2" fill="#21262d"><title>2026-04-27: 0 tokens</title></rect>
    <rect x="540" y="24" width="10" height="10" rx="2" fill="#21262d"><title>2026-04-28: 0 tokens</title></rect>
    <rect x="540" y="36" width="10" height="10" rx="2" fill="#21262d"><title>2026-04-29: 0 tokens</title></rect>
    <rect x="540" y="48" width="10" height="10" rx="2" fill="#21262d"><title>2026-04-30: 0 tokens</title></rect>
    <rect x="540" y="60" width="10" height="10" rx="2" fill="#21262d"><title>2026-05-01: 0 tokens</title></rect>
    <rect x="540" y="72" width="10" height="10" rx="2" fill="#21262d"><title>2026-05-02: 0 tokens</title></rect>
    <rect x="552" y="0" width="10" height="10" rx="2" fill="#21262d"><title>2026-05-03: 0 tokens</title></rect>
    <rect x="552" y="12" width="10" height="10" rx="2" fill="#21262d"><title>2026-05-04: 0 tokens</title></rect>
    <rect x="552" y="24" width="10" height="10" rx="2" fill="#21262d"><title>2026-05-05: 0 tokens</title></rect>
    <rect x="552" y="36" width="10" height="10" rx="2" fill="#21262d"><title>2026-05-06: 0 tokens</title></rect>
    <rect x="552" y="48" width="10" height="10" rx="2" fill="#21262d"><title>2026-05-07: 0 tokens</title></rect>
    <rect x="552" y="60" width="10" height="10" rx="2" fill="#21262d"><title>2026-05-08: 0 tokens</title></rect>
    <rect x="552" y="72" width="10" height="10" rx="2" fill="#21262d"><title>2026-05-09: 0 tokens</title></rect>
    <rect x="564" y="0" width="10" height="10" rx="2" fill="#21262d"><title>2026-05-10: 0 tokens</title></rect>
    <rect x="564" y="12" width="10" height="10" rx="2" fill="#21262d"><title>2026-05-11: 0 tokens</title></rect>
    <rect x="564" y="24" width="10" height="10" rx="2" fill="#21262d"><title>2026-05-12: 0 tokens</title></rect>
    <rect x="564" y="36" width="10" height="10" rx="2" fill="#21262d"><title>2026-05-13: 0 tokens</title></rect>
    <rect x="564" y="48" width="10" height="10" rx="2" fill="#21262d"><title>2026-05-14: 0 tokens</title></rect>
    <rect x="564" y="60" width="10" height="10" rx="2" fill="#21262d"><title>2026-05-15: 0 tokens</title></rect>
    <rect x="564" y="72" width="10" height="10" rx="2" fill="#21262d"><title>2026-05-16: 0 tokens</title></rect>
    <rect x="576" y="0" width="10" height="10" rx="2" fill="#21262d"><title>2026-05-17: 0 tokens</title></rect>
    <rect x="576" y="12" width="10" height="10" rx="2" fill="#21262d"><title>2026-05-18: 0 tokens</title></rect>
    <rect x="576" y="24" width="10" height="10" rx="2" fill="#21262d"><title>2026-05-19: 0 tokens</title></rect>
    <rect x="576" y="36" width="10" height="10" rx="2" fill="#21262d"><title>2026-05-20: 0 tokens</title></rect>
    <rect x="576" y="48" width="10" height="10" rx="2" fill="#21262d"><title>2026-05-21: 0 tokens</title></rect>
    <rect x="576" y="60" width="10" height="10" rx="2" fill="#21262d"><title>2026-05-22: 0 tokens</title></rect>
    <rect x="576" y="72" width="10" height="10" rx="2" fill="#60a5fa"><title>2026-05-23: 597.7K tokens</title></rect>
    <rect x="588" y="0" width="10" height="10" rx="2" fill="#60a5fa"><title>2026-05-24: 633.1K tokens</title></rect>
    <rect x="588" y="12" width="10" height="10" rx="2" fill="#60a5fa"><title>2026-05-25: 126.9K tokens</title></rect>
    <rect x="588" y="24" width="10" height="10" rx="2" fill="#60a5fa"><title>2026-05-26: 133.9K tokens</title></rect>
    <rect x="588" y="36" width="10" height="10" rx="2" fill="#60a5fa"><title>2026-05-27: 309.3K tokens</title></rect>
    <rect x="588" y="48" width="10" height="10" rx="2" fill="#3b82f6"><title>2026-05-28: 33.6K tokens</title></rect>
    <rect x="588" y="60" width="10" height="10" rx="2" fill="#93c5fd"><title>2026-05-29: 1.8M tokens</title></rect>
    <rect x="588" y="72" width="10" height="10" rx="2" fill="#93c5fd"><title>2026-05-30: 13.7M tokens</title></rect>
    <rect x="600" y="0" width="10" height="10" rx="2" fill="#93c5fd"><title>2026-05-31: 26.6M tokens</title></rect>
    <rect x="600" y="12" width="10" height="10" rx="2" fill="#60a5fa"><title>2026-06-01: 101.7K tokens</title></rect>
    <rect x="600" y="24" width="10" height="10" rx="2" fill="#21262d"><title>2026-06-02: 0 tokens</title></rect>
    <rect x="600" y="36" width="10" height="10" rx="2" fill="#60a5fa"><title>2026-06-03: 598.7K tokens</title></rect>
    <rect x="600" y="48" width="10" height="10" rx="2" fill="#21262d"><title>2026-06-04: 0 tokens</title></rect>
    <rect x="600" y="60" width="10" height="10" rx="2" fill="#21262d"><title>2026-06-05: 0 tokens</title></rect>
    <rect x="600" y="72" width="10" height="10" rx="2" fill="#21262d"><title>2026-06-06: 0 tokens</title></rect>
    <rect x="612" y="0" width="10" height="10" rx="2" fill="#21262d"><title>2026-06-07: 0 tokens</title></rect>
    <rect x="612" y="12" width="10" height="10" rx="2" fill="#60a5fa"><title>2026-06-08: 102.2K tokens</title></rect>
    <rect x="612" y="24" width="10" height="10" rx="2" fill="#60a5fa"><title>2026-06-09: 648.0K tokens</title></rect>
    <rect x="612" y="36" width="10" height="10" rx="2" fill="#3b82f6"><title>2026-06-10: 15.6K tokens</title></rect>
    <rect x="612" y="48" width="10" height="10" rx="2" fill="#21262d"><title>2026-06-11: 0 tokens</title></rect>
    <rect x="612" y="60" width="10" height="10" rx="2" fill="#21262d"><title>2026-06-12: 0 tokens</title></rect>
    <rect x="612" y="72" width="10" height="10" rx="2" fill="#60a5fa"><title>2026-06-13: 359.0K tokens</title></rect>
    <rect x="624" y="0" width="10" height="10" rx="2" fill="#60a5fa"><title>2026-06-14: 123.1K tokens</title></rect>
  </g>

  <!-- footer -->
  <text x="22" y="388" fill="#4b5563" font-size="11" font-family="system-ui,sans-serif">~2× more tokens than the complete works of Shakespeare (×10).</text>
</svg>